<svg xmlns="http://www.w3.org/2000/svg" viewBox="0 0 48 48" fill="none">
  <!-- Mosque dome -->
  <path d="M24 6 C24 6, 14 16, 14 24 L14 38 L34 38 L34 24 C34 16, 24 6, 24 6Z" fill="#084E4E"/>
  <!-- Dome highlight -->
  <path d="M24 8 C24 8, 16 17, 16 24 L16 36 L24 36 L24 8Z" fill="#0D6E6E" opacity="0.6"/>
  <!-- Door -->
  <path d="M20 38 L20 30 Q24 26 28 30 L28 38 Z" fill="#C9A84C"/>
  <!-- Minaret left -->
  <rect x="8" y="18" width="4" height="20" rx="1" fill="#084E4E"/>
  <rect x="8.5" y="14" width="3" height="4" rx="1.5" fill="#084E4E"/>
  <!-- Minaret right -->
  <rect x="36" y="18" width="4" height="20" rx="1" fill="#084E4E"/>
  <rect x="36.5" y="14" width="3" height="4" rx="1.5" fill="#084E4E"/>
  <!-- Crescent on top -->
  <circle cx="24" cy="5" r="3" fill="none" stroke="#C9A84C" stroke-width="1.5"/>
  <circle cx="25.5" cy="4.5" r="2.2" fill="#084E4E"/>
  <!-- Star -->
  <polygon points="24,1 24.5,2.2 25.8,2.2 24.7,3 25.1,4.2 24,3.4 22.9,4.2 23.3,3 22.2,2.2 23.5,2.2" fill="#C9A84C" transform="scale(0.5) translate(24,-2)"/>
  <!-- Base -->
  <rect x="6" y="38" width="36" height="3" rx="1" fill="#084E4E"/>
  <!-- Windows -->
  <circle cx="18" cy="22" r="1.5" fill="#C9A84C" opacity="0.7"/>
  <circle cx="30" cy="22" r="1.5" fill="#C9A84C" opacity="0.7"/>
</svg>
