<svg xmlns="http://www.w3.org/2000/svg" viewBox="0 0 1440 400" preserveAspectRatio="none">

  <!-- ===== MOSQUE 1 (Left) - Small mosque ===== -->
  <g>
    <!-- Main body -->
    <rect x="140" y="280" width="160" height="120" rx="2" fill="rgba(201,168,76,0.35)"/>
    <!-- Large onion dome -->
    <ellipse cx="220" cy="240" rx="55" ry="45" fill="rgba(201,168,76,0.40)"/>
    <!-- Dome neck -->
    <rect x="200" y="275" width="40" height="10" fill="rgba(201,168,76,0.35)"/>
    <!-- Dome top point (onion tip) -->
    <path d="M220,195 C215,205 195,225 195,245 C195,260 205,275 220,280 C235,275 245,260 245,245 C245,225 225,205 220,195Z" fill="rgba(201,168,76,0.42)"/>
    <!-- Finial stick -->
    <line x1="220" y1="195" x2="220" y2="172" stroke="rgba(201,168,76,0.50)" stroke-width="2.5"/>
    <!-- Crescent moon -->
    <path d="M213,168 A8,8 0 1,1 227,168 A6,6 0 1,0 213,168Z" fill="rgba(201,168,76,0.55)"/>

    <!-- Left minaret -->
    <rect x="130" y="220" width="18" height="180" fill="rgba(201,168,76,0.30)"/>
    <!-- Minaret dome -->
    <path d="M139,220 C133,215 128,205 130,195 C132,205 136,212 139,220Z" fill="rgba(201,168,76,0.35)"/>
    <path d="M139,220 C145,215 150,205 148,195 C146,205 142,212 139,220Z" fill="rgba(201,168,76,0.35)"/>
    <ellipse cx="139" cy="198" rx="10" ry="14" fill="rgba(201,168,76,0.38)"/>
    <line x1="139" y1="184" x2="139" y2="170" stroke="rgba(201,168,76,0.45)" stroke-width="2"/>
    <path d="M134,166 A6,6 0 1,1 144,166 A4.5,4.5 0 1,0 134,166Z" fill="rgba(201,168,76,0.48)"/>
    <!-- Minaret balcony -->
    <rect x="125" y="250" width="28" height="4" rx="2" fill="rgba(201,168,76,0.32)"/>
    <rect x="127" y="300" width="24" height="3" rx="1" fill="rgba(201,168,76,0.25)"/>

    <!-- Right minaret -->
    <rect x="292" y="220" width="18" height="180" fill="rgba(201,168,76,0.30)"/>
    <ellipse cx="301" cy="198" rx="10" ry="14" fill="rgba(201,168,76,0.38)"/>
    <line x1="301" y1="184" x2="301" y2="170" stroke="rgba(201,168,76,0.45)" stroke-width="2"/>
    <path d="M296,166 A6,6 0 1,1 306,166 A4.5,4.5 0 1,0 296,166Z" fill="rgba(201,168,76,0.48)"/>
    <rect x="287" y="250" width="28" height="4" rx="2" fill="rgba(201,168,76,0.32)"/>
    <rect x="289" y="300" width="24" height="3" rx="1" fill="rgba(201,168,76,0.25)"/>

    <!-- Arched door -->
    <path d="M205,400 L205,340 A15,18 0 0,1 235,340 L235,400Z" fill="rgba(201,168,76,0.20)"/>
    <!-- Arched windows -->
    <path d="M165,310 A8,10 0 0,1 181,310 L181,335 L165,335Z" fill="rgba(201,168,76,0.20)"/>
    <path d="M259,310 A8,10 0 0,1 275,310 L275,335 L259,335Z" fill="rgba(201,168,76,0.20)"/>
  </g>

  <!-- ===== MOSQUE 2 (Center) - Grand Masjid (largest) ===== -->
  <g>
    <!-- Main body -->
    <rect x="520" y="230" width="280" height="170" rx="3" fill="rgba(201,168,76,0.38)"/>

    <!-- Central large onion dome -->
    <path d="M660,110 C650,130 610,170 610,210 C610,235 630,255 660,260 C690,255 710,235 710,210 C710,170 670,130 660,110Z" fill="rgba(201,168,76,0.45)"/>
    <!-- Dome base ring -->
    <ellipse cx="660" cy="255" rx="52" ry="8" fill="rgba(201,168,76,0.35)"/>
    <!-- Finial -->
    <line x1="660" y1="110" x2="660" y2="82" stroke="rgba(201,168,76,0.55)" stroke-width="3"/>
    <!-- Crescent -->
    <path d="M651,75 A10,10 0 1,1 669,75 A8,8 0 1,0 651,75Z" fill="rgba(201,168,76,0.60)"/>
    <!-- Star -->
    <circle cx="660" cy="62" r="3" fill="rgba(201,168,76,0.55)"/>

    <!-- Left secondary dome -->
    <path d="M575,175 C570,185 555,200 555,218 C555,230 563,240 575,243 C587,240 595,230 595,218 C595,200 580,185 575,175Z" fill="rgba(201,168,76,0.38)"/>
    <ellipse cx="575" cy="240" rx="22" ry="5" fill="rgba(201,168,76,0.30)"/>
    <line x1="575" y1="175" x2="575" y2="162" stroke="rgba(201,168,76,0.45)" stroke-width="2"/>
    <path d="M570,158 A6,6 0 1,1 580,158 A4.5,4.5 0 1,0 570,158Z" fill="rgba(201,168,76,0.50)"/>

    <!-- Right secondary dome -->
    <path d="M745,175 C740,185 725,200 725,218 C725,230 733,240 745,243 C757,240 765,230 765,218 C765,200 750,185 745,175Z" fill="rgba(201,168,76,0.38)"/>
    <ellipse cx="745" cy="240" rx="22" ry="5" fill="rgba(201,168,76,0.30)"/>
    <line x1="745" y1="175" x2="745" y2="162" stroke="rgba(201,168,76,0.45)" stroke-width="2"/>
    <path d="M740,158 A6,6 0 1,1 750,158 A4.5,4.5 0 1,0 740,158Z" fill="rgba(201,168,76,0.50)"/>

    <!-- Tall left minaret -->
    <rect x="498" y="150" width="20" height="250" fill="rgba(201,168,76,0.35)"/>
    <ellipse cx="508" cy="138" rx="12" ry="16" fill="rgba(201,168,76,0.42)"/>
    <line x1="508" y1="122" x2="508" y2="100" stroke="rgba(201,168,76,0.50)" stroke-width="2.5"/>
    <path d="M502,95 A7,7 0 1,1 514,95 A5.5,5.5 0 1,0 502,95Z" fill="rgba(201,168,76,0.55)"/>
    <!-- Balconies -->
    <rect x="493" y="190" width="30" height="4" rx="2" fill="rgba(201,168,76,0.32)"/>
    <rect x="495" y="250" width="26" height="3" rx="1" fill="rgba(201,168,76,0.28)"/>
    <rect x="496" y="320" width="24" height="3" rx="1" fill="rgba(201,168,76,0.22)"/>

    <!-- Tall right minaret -->
    <rect x="802" y="150" width="20" height="250" fill="rgba(201,168,76,0.35)"/>
    <ellipse cx="812" cy="138" rx="12" ry="16" fill="rgba(201,168,76,0.42)"/>
    <line x1="812" y1="122" x2="812" y2="100" stroke="rgba(201,168,76,0.50)" stroke-width="2.5"/>
    <path d="M806,95 A7,7 0 1,1 818,95 A5.5,5.5 0 1,0 806,95Z" fill="rgba(201,168,76,0.55)"/>
    <rect x="797" y="190" width="30" height="4" rx="2" fill="rgba(201,168,76,0.32)"/>
    <rect x="799" y="250" width="26" height="3" rx="1" fill="rgba(201,168,76,0.28)"/>
    <rect x="800" y="320" width="24" height="3" rx="1" fill="rgba(201,168,76,0.22)"/>

    <!-- Main arched door -->
    <path d="M640,400 L640,320 A20,25 0 0,1 680,320 L680,400Z" fill="rgba(201,168,76,0.22)"/>
    <!-- Side doors -->
    <path d="M560,400 L560,345 A10,12 0 0,1 580,345 L580,400Z" fill="rgba(201,168,76,0.18)"/>
    <path d="M740,400 L740,345 A10,12 0 0,1 760,345 L760,400Z" fill="rgba(201,168,76,0.18)"/>
    <!-- Windows row -->
    <path d="M570,270 A8,10 0 0,1 586,270 L586,290 L570,290Z" fill="rgba(201,168,76,0.18)"/>
    <path d="M608,270 A8,10 0 0,1 624,270 L624,290 L608,290Z" fill="rgba(201,168,76,0.18)"/>
    <path d="M696,270 A8,10 0 0,1 712,270 L712,290 L696,290Z" fill="rgba(201,168,76,0.18)"/>
    <path d="M734,270 A8,10 0 0,1 750,270 L750,290 L734,290Z" fill="rgba(201,168,76,0.18)"/>
  </g>

  <!-- ===== MOSQUE 3 (Right) - Medium mosque ===== -->
  <g>
    <!-- Main body -->
    <rect x="1020" y="265" width="170" height="135" rx="2" fill="rgba(201,168,76,0.35)"/>
    <!-- Onion dome -->
    <path d="M1105,150 C1098,168 1070,195 1070,222 C1070,240 1085,255 1105,258 C1125,255 1140,240 1140,222 C1140,195 1112,168 1105,150Z" fill="rgba(201,168,76,0.42)"/>
    <ellipse cx="1105" cy="255" rx="38" ry="7" fill="rgba(201,168,76,0.33)"/>
    <!-- Finial -->
    <line x1="1105" y1="150" x2="1105" y2="128" stroke="rgba(201,168,76,0.50)" stroke-width="2.5"/>
    <!-- Crescent -->
    <path d="M1098,122 A8,8 0 1,1 1112,122 A6,6 0 1,0 1098,122Z" fill="rgba(201,168,76,0.55)"/>

    <!-- Left minaret -->
    <rect x="1005" y="210" width="16" height="190" fill="rgba(201,168,76,0.30)"/>
    <ellipse cx="1013" cy="196" rx="10" ry="14" fill="rgba(201,168,76,0.38)"/>
    <line x1="1013" y1="182" x2="1013" y2="165" stroke="rgba(201,168,76,0.45)" stroke-width="2"/>
    <path d="M1008,161 A6,6 0 1,1 1018,161 A4.5,4.5 0 1,0 1008,161Z" fill="rgba(201,168,76,0.50)"/>
    <rect x="1000" y="245" width="26" height="4" rx="2" fill="rgba(201,168,76,0.30)"/>

    <!-- Right minaret -->
    <rect x="1189" y="210" width="16" height="190" fill="rgba(201,168,76,0.30)"/>
    <ellipse cx="1197" cy="196" rx="10" ry="14" fill="rgba(201,168,76,0.38)"/>
    <line x1="1197" y1="182" x2="1197" y2="165" stroke="rgba(201,168,76,0.45)" stroke-width="2"/>
    <path d="M1192,161 A6,6 0 1,1 1202,161 A4.5,4.5 0 1,0 1192,161Z" fill="rgba(201,168,76,0.50)"/>
    <rect x="1184" y="245" width="26" height="4" rx="2" fill="rgba(201,168,76,0.30)"/>

    <!-- Door -->
    <path d="M1090,400 L1090,340 A15,18 0 0,1 1120,340 L1120,400Z" fill="rgba(201,168,76,0.20)"/>
    <!-- Windows -->
    <path d="M1045,300 A8,10 0 0,1 1061,300 L1061,320 L1045,320Z" fill="rgba(201,168,76,0.18)"/>
    <path d="M1149,300 A8,10 0 0,1 1165,300 L1165,320 L1149,320Z" fill="rgba(201,168,76,0.18)"/>
  </g>

  <!-- ===== Small dome far left ===== -->
  <g>
    <rect x="10" y="330" width="80" height="70" rx="2" fill="rgba(201,168,76,0.25)"/>
    <path d="M50,270 C46,280 32,295 32,312 C32,322 40,330 50,332 C60,330 68,322 68,312 C68,295 54,280 50,270Z" fill="rgba(201,168,76,0.32)"/>
    <line x1="50" y1="270" x2="50" y2="258" stroke="rgba(201,168,76,0.40)" stroke-width="2"/>
    <path d="M45,254 A6,6 0 1,1 55,254 A4.5,4.5 0 1,0 45,254Z" fill="rgba(201,168,76,0.45)"/>
  </g>

  <!-- ===== Small dome far right ===== -->
  <g>
    <rect x="1340" y="320" width="90" height="80" rx="2" fill="rgba(201,168,76,0.25)"/>
    <path d="M1385,260 C1380,272 1362,290 1362,308 C1362,320 1372,330 1385,332 C1398,330 1408,320 1408,308 C1408,290 1390,272 1385,260Z" fill="rgba(201,168,76,0.32)"/>
    <line x1="1385" y1="260" x2="1385" y2="246" stroke="rgba(201,168,76,0.40)" stroke-width="2"/>
    <path d="M1380,242 A6,6 0 1,1 1390,242 A4.5,4.5 0 1,0 1380,242Z" fill="rgba(201,168,76,0.45)"/>
  </g>

  <!-- ===== Background buildings (simple rectangles) ===== -->
  <g opacity="0.5">
    <rect x="90" y="340" width="30" height="60" fill="rgba(201,168,76,0.18)"/>
    <rect x="350" y="350" width="25" height="50" fill="rgba(201,168,76,0.15)"/>
    <rect x="380" y="340" width="20" height="60" fill="rgba(201,168,76,0.12)"/>
    <rect x="420" y="355" width="35" height="45" fill="rgba(201,168,76,0.15)"/>
    <rect x="460" y="345" width="22" height="55" fill="rgba(201,168,76,0.12)"/>
    <rect x="840" y="350" width="28" height="50" fill="rgba(201,168,76,0.15)"/>
    <rect x="875" y="340" width="22" height="60" fill="rgba(201,168,76,0.12)"/>
    <rect x="920" y="355" width="35" height="45" fill="rgba(201,168,76,0.15)"/>
    <rect x="960" y="345" width="25" height="55" fill="rgba(201,168,76,0.12)"/>
    <rect x="1230" y="340" width="30" height="60" fill="rgba(201,168,76,0.15)"/>
    <rect x="1270" y="350" width="25" height="50" fill="rgba(201,168,76,0.12)"/>
    <rect x="1305" y="335" width="20" height="65" fill="rgba(201,168,76,0.15)"/>
  </g>

  <!-- Decorative stars -->
  <circle cx="100" cy="60" r="2" fill="rgba(201,168,76,0.40)"/>
  <circle cx="350" cy="40" r="1.5" fill="rgba(201,168,76,0.35)"/>
  <circle cx="480" cy="55" r="2" fill="rgba(201,168,76,0.40)"/>
  <circle cx="820" cy="35" r="2.5" fill="rgba(201,168,76,0.45)"/>
  <circle cx="1000" cy="50" r="1.5" fill="rgba(201,168,76,0.35)"/>
  <circle cx="1280" cy="42" r="2" fill="rgba(201,168,76,0.40)"/>
  <circle cx="200" cy="90" r="1.2" fill="rgba(201,168,76,0.30)"/>
  <circle cx="700" cy="45" r="1.8" fill="rgba(201,168,76,0.38)"/>
  <circle cx="1150" cy="70" r="1.2" fill="rgba(201,168,76,0.30)"/>

  <!-- Ground line -->
  <rect x="0" y="396" width="1440" height="4" fill="rgba(201,168,76,0.15)"/>
</svg>
