<svg xmlns="http://www.w3.org/2000/svg" viewBox="0 0 1440 320" preserveAspectRatio="none">

  <!-- Solid dark silhouette - high contrast against background -->
  <path fill="#062a2a" d="
    M0,320 L0,270

    L12,270 L12,250 L20,250 L20,235 L24,235 L24,218 L28,218 L28,235 L32,235 L32,250 L40,250 L40,270

    L52,270 L52,255 L58,255 L58,242 L62,242 L62,255 L68,255 L68,270

    L80,270 L80,258 L90,258 L90,270

    L98,270 L98,252 L102,252 L102,238

    C102,238 108,210 118,190
    C130,165 145,150 168,145
    C191,150 206,165 218,190
    C228,210 234,238 234,238

    L238,238 L238,252 L242,252 L242,270

    L252,270 L252,252 L258,252 L258,240 L262,240 L262,252 L268,252 L268,270

    L278,270 L278,258 L286,258 L286,248 L290,248 L290,232 L294,232 L294,248 L298,248 L298,258 L306,258 L306,270

    L316,270 L316,258 L324,258 L324,270

    L334,270 L334,252

    C334,252 340,228 350,208
    C362,182 380,168 408,160
    C436,168 454,182 466,208
    C476,228 482,252 482,252

    L486,252 L486,270

    L496,270 L496,255 L502,255 L502,245 L506,245 L506,255 L512,255 L512,270

    L522,270 L522,252 L528,252 L528,240 L532,240 L532,225 L536,225 L536,240 L540,240 L540,252 L546,252 L546,270

    L556,270 L556,260 L566,260 L566,270

    L576,270 L576,250 L580,250 L580,235

    C580,235 586,200 600,170
    C618,130 642,100 720,85
    C798,100 822,130 840,170
    C854,200 860,235 860,235

    L864,235 L864,250 L868,250 L868,270

    L878,270 L878,255 L884,255 L884,245 L888,245 L888,255 L894,255 L894,270

    L904,270 L904,258 L912,258 L912,248 L916,248 L916,232 L920,232 L920,248 L924,248 L924,258 L932,258 L932,270

    L942,270 L942,260 L952,260 L952,270

    L960,270 L960,252

    C960,252 966,228 976,208
    C988,182 1006,168 1034,160
    C1062,168 1080,182 1092,208
    C1102,228 1108,252 1108,252

    L1112,252 L1112,270

    L1122,270 L1122,255 L1128,255 L1128,242 L1132,242 L1132,255 L1138,255 L1138,270

    L1148,270 L1148,258 L1156,258 L1156,270

    L1164,270 L1164,248 L1168,248 L1168,232

    C1168,232 1174,208 1184,190
    C1196,165 1212,150 1240,142
    C1268,150 1284,165 1296,190
    C1306,208 1312,232 1312,232

    L1316,232 L1316,248 L1320,248 L1320,270

    L1330,270 L1330,252 L1336,252 L1336,242 L1340,242 L1340,225 L1344,225 L1344,242 L1348,242 L1348,252 L1354,252 L1354,270

    L1362,270 L1362,258 L1370,258 L1370,248 L1374,248 L1374,258 L1382,258 L1382,270

    L1392,270 L1392,255 L1398,255 L1398,242 L1402,242 L1402,255 L1408,255 L1408,270

    L1418,270 L1418,258 L1426,258 L1426,248 L1430,248 L1430,258 L1440,258

    L1440,320 Z
  "/>

  <!-- Crescent moons - same dark color extending above domes -->
  <!-- Dome 1 (x~168) -->
  <line x1="168" y1="145" x2="168" y2="124" stroke="#062a2a" stroke-width="3"/>
  <path d="M160,118 A9,9 0 1,0 176,118 A7,7 0 1,1 160,118Z" fill="#062a2a"/>
  <circle cx="168" cy="108" r="2.5" fill="#062a2a"/>

  <!-- Dome 2 (x~408) -->
  <line x1="408" y1="160" x2="408" y2="140" stroke="#062a2a" stroke-width="3"/>
  <path d="M400,134 A9,9 0 1,0 416,134 A7,7 0 1,1 400,134Z" fill="#062a2a"/>
  <circle cx="408" cy="125" r="2.5" fill="#062a2a"/>

  <!-- GRAND dome center (x~720) -->
  <line x1="720" y1="85" x2="720" y2="52" stroke="#062a2a" stroke-width="3.5"/>
  <path d="M709,44 A13,13 0 1,0 731,44 A10,10 0 1,1 709,44Z" fill="#062a2a"/>
  <circle cx="720" cy="32" r="3.5" fill="#062a2a"/>

  <!-- Dome 4 (x~1034) -->
  <line x1="1034" y1="160" x2="1034" y2="140" stroke="#062a2a" stroke-width="3"/>
  <path d="M1026,134 A9,9 0 1,0 1042,134 A7,7 0 1,1 1026,134Z" fill="#062a2a"/>
  <circle cx="1034" cy="125" r="2.5" fill="#062a2a"/>

  <!-- Dome 5 (x~1240) -->
  <line x1="1240" y1="142" x2="1240" y2="118" stroke="#062a2a" stroke-width="3"/>
  <path d="M1231,112 A10,10 0 1,0 1249,112 A8,8 0 1,1 1231,112Z" fill="#062a2a"/>
  <circle cx="1240" cy="102" r="2.8" fill="#062a2a"/>

  <!-- Stars -->
  <circle cx="90" cy="30" r="1.5" fill="rgba(201,168,76,0.35)"/>
  <circle cx="260" cy="50" r="1.2" fill="rgba(201,168,76,0.30)"/>
  <circle cx="420" cy="22" r="1.8" fill="rgba(201,168,76,0.35)"/>
  <circle cx="560" cy="38" r="1.3" fill="rgba(201,168,76,0.28)"/>
  <circle cx="660" cy="25" r="1.5" fill="rgba(201,168,76,0.32)"/>
  <circle cx="790" cy="18" r="1.2" fill="rgba(201,168,76,0.30)"/>
  <circle cx="880" cy="40" r="1.6" fill="rgba(201,168,76,0.35)"/>
  <circle cx="1080" cy="32" r="1.3" fill="rgba(201,168,76,0.30)"/>
  <circle cx="1180" cy="48" r="1" fill="rgba(201,168,76,0.25)"/>
  <circle cx="1350" cy="28" r="1.5" fill="rgba(201,168,76,0.32)"/>
  <circle cx="180" cy="55" r="0.8" fill="rgba(201,168,76,0.22)"/>
  <circle cx="510" cy="15" r="1" fill="rgba(201,168,76,0.25)"/>
  <circle cx="950" cy="20" r="1" fill="rgba(201,168,76,0.25)"/>
</svg>
