<svg xmlns="http://www.w3.org/2000/svg" viewBox="0 0 1440 400" preserveAspectRatio="none">

  <!-- ════════ LAYER 3: FAR BACK ════════ -->
  <g fill="#147060" opacity="0.2">
    <rect x="10" y="300" width="130" height="100"/>
    <path d="M30,300 Q30,270 50,252 Q65,240 75,215 Q85,240 100,252 Q120,270 120,300Z"/>
    
    <rect x="200" y="290" width="140" height="110"/>
    <path d="M225,290 Q225,258 248,238 Q265,225 270,195 Q275,225 292,238 Q315,258 315,290Z"/>

    <rect x="420" y="285" width="150" height="115"/>
    <path d="M448,285 Q448,250 475,228 Q492,215 495,180 Q498,215 515,228 Q542,250 542,285Z"/>

    <rect x="680" y="280" width="160" height="120"/>
    <path d="M710,280 Q710,242 742,218 Q760,202 763,165 Q766,202 784,218 Q816,242 816,280Z"/>

    <rect x="940" y="288" width="140" height="112"/>
    <path d="M965,288 Q965,255 990,235 Q1005,222 1010,190 Q1015,222 1030,235 Q1055,255 1055,288Z"/>

    <rect x="1180" y="295" width="130" height="105"/>
    <path d="M1205,295 Q1205,265 1225,248 Q1240,236 1245,208 Q1250,236 1265,248 Q1285,265 1285,295Z"/>

    <rect x="155" y="245" width="7" height="155"/>
    <rect x="375" y="235" width="7" height="165"/>
    <rect x="585" y="228" width="7" height="172"/>
    <rect x="855" y="232" width="7" height="168"/>
    <rect x="1095" y="240" width="7" height="160"/>
    <rect x="1325" y="248" width="7" height="152"/>
  </g>

  <!-- ════════ LAYER 2: MIDDLE ════════ -->
  <g fill="#0c5548" opacity="0.45">
    <rect x="-10" y="310" width="120" height="90"/>
    <path d="M15,310 Q15,282 35,265 Q48,254 53,228 Q58,254 71,265 Q91,282 91,310Z"/>
    
    <rect x="135" y="298" width="135" height="102"/>
    <path d="M162,298 Q162,265 188,245 Q202,233 207,202 Q212,233 226,245 Q252,265 252,298Z"/>

    <rect x="320" y="292" width="145" height="108"/>
    <path d="M350,292 Q350,255 380,233 Q395,220 400,185 Q405,220 420,233 Q450,255 450,292Z"/>

    <rect x="530" y="282" width="160" height="118"/>
    <path d="M562,282 Q562,240 598,215 Q615,200 620,160 Q625,200 642,215 Q678,240 678,282Z"/>

    <rect x="760" y="295" width="140" height="105"/>
    <path d="M788,295 Q788,262 812,242 Q828,230 832,198 Q836,230 852,242 Q876,262 876,295Z"/>

    <rect x="960" y="300" width="130" height="100"/>
    <path d="M985,300 Q985,270 1006,253 Q1020,242 1025,215 Q1030,242 1044,253 Q1065,270 1065,300Z"/>

    <rect x="1150" y="305" width="125" height="95"/>
    <path d="M1173,305 Q1173,275 1193,258 Q1206,247 1212,222 Q1218,247 1231,258 Q1251,275 1251,305Z"/>

    <rect x="1330" y="308" width="120" height="92"/>
    <path d="M1352,308 Q1352,280 1370,264 Q1383,254 1388,230 Q1393,254 1406,264 Q1424,280 1424,308Z"/>

    <!-- minarets -->
    <rect x="120" y="242" width="10" height="158"/>
    <path d="M120,242 Q119,232 123,224 Q125,220 125,214 Q125,220 127,224 Q131,232 130,242Z"/>
    <rect x="280" y="228" width="10" height="172"/>
    <path d="M280,228 Q279,218 283,210 Q285,206 285,200 Q285,206 287,210 Q291,218 290,228Z"/>
    <rect x="480" y="218" width="11" height="182"/>
    <path d="M480,218 Q479,208 484,199 Q486,195 486,189 Q486,195 488,199 Q493,208 492,218Z"/>
    <rect x="705" y="212" width="11" height="188"/>
    <path d="M705,212 Q704,202 709,193 Q711,189 711,183 Q711,189 713,193 Q718,202 717,212Z"/>
    <rect x="910" y="225" width="10" height="175"/>
    <path d="M910,225 Q909,215 913,207 Q915,203 915,197 Q915,203 917,207 Q921,215 920,225Z"/>
    <rect x="1105" y="235" width="10" height="165"/>
    <path d="M1105,235 Q1104,225 1108,217 Q1110,213 1110,207 Q1110,213 1112,217 Q1116,225 1115,235Z"/>
    <rect x="1290" y="242" width="10" height="158"/>
    <path d="M1290,242 Q1289,232 1293,224 Q1295,220 1295,214 Q1295,220 1297,224 Q1301,232 1300,242Z"/>
  </g>

  <!-- ════════ LAYER 1: FRONT (darkest) ════════ -->
  <g fill="#032420">

    <!-- ── Dome A (left) ── -->
    <rect x="20" y="320" width="110" height="80"/>
    <path d="M40,320 Q40,288 60,268 Q72,257 75,228 Q78,257 90,268 Q110,288 110,320Z"/>

    <!-- Left minaret -->
    <rect x="138" y="225" width="13" height="175"/>
    <rect x="134" y="255" width="21" height="4" rx="1"/>
    <rect x="135" y="305" width="19" height="3" rx="1"/>
    <path d="M138,225 Q137,215 142,205 Q144.5,200 144.5,192 Q144.5,200 147,205 Q152,215 151,225Z"/>
    <rect x="143" y="172" width="3" height="20"/>
    <path d="M139,168 A6,6 0 1,0 150,168 A4.5,4.5 0 1,1 139,168Z"/>
    <circle cx="144.5" cy="160" r="2"/>

    <!-- small buildings -->
    <rect x="160" y="355" width="18" height="45"/>
    <rect x="182" y="348" width="22" height="52"/>
    <rect x="208" y="358" width="16" height="42"/>

    <!-- ── Dome B ── -->
    <rect x="230" y="312" width="130" height="88"/>
    <path d="M258,312 Q258,275 285,252 Q298,240 302,205 Q306,240 319,252 Q346,275 346,312Z"/>

    <!-- Minaret B-C -->
    <rect x="368" y="208" width="14" height="192"/>
    <rect x="363" y="240" width="24" height="5" rx="1"/>
    <rect x="364" y="290" width="22" height="4" rx="1"/>
    <rect x="365" y="342" width="20" height="3" rx="1"/>
    <path d="M368,208 Q367,196 373,184 Q375,179 375,170 Q375,179 377,184 Q383,196 382,208Z"/>
    <rect x="373" y="148" width="4" height="22"/>
    <path d="M369,143 A7,7 0 1,0 381,143 A5.5,5.5 0 1,1 369,143Z"/>
    <circle cx="375" cy="133" r="2.5"/>

    <!-- small buildings -->
    <rect x="390" y="350" width="20" height="50"/>
    <rect x="414" y="342" width="18" height="58"/>
    <rect x="436" y="355" width="22" height="45"/>

    <!-- ── Dome C (small) ── -->
    <rect x="462" y="325" width="100" height="75"/>
    <path d="M480,325 Q480,298 498,282 Q508,273 512,250 Q516,273 526,282 Q544,298 544,325Z"/>

    <!-- ── Grand left minaret ── -->
    <rect x="572" y="165" width="16" height="235"/>
    <rect x="566" y="198" width="28" height="6" rx="1"/>
    <rect x="567" y="255" width="26" height="5" rx="1"/>
    <rect x="568" y="318" width="24" height="4" rx="1"/>
    <path d="M572,165 Q571,150 578,136 Q580,130 580,120 Q580,130 582,136 Q589,150 588,165Z"/>
    <rect x="578" y="95" width="4" height="25"/>
    <path d="M573,89 A8,8 0 1,0 587,89 A6,6 0 1,1 573,89Z"/>
    <circle cx="580" cy="78" r="3"/>

    <!-- ══ GRAND DOME D (CENTER) ══ -->
    <rect x="598" y="290" width="220" height="110"/>
    <path d="M640,290 Q640,238 685,205 Q705,190 710,145 Q715,190 735,205 Q780,238 780,290Z"/>
    <!-- Crescent + star -->
    <rect x="706" y="100" width="8" height="45"/>
    <rect x="702" y="140" width="16" height="5" rx="2"/>
    <path d="M700,90 A12,12 0 1,0 720,90 A9.5,9.5 0 1,1 700,90Z"/>
    <circle cx="710" cy="76" r="3.5"/>

    <!-- ── Grand right minaret ── -->
    <rect x="828" y="165" width="16" height="235"/>
    <rect x="822" y="198" width="28" height="6" rx="1"/>
    <rect x="823" y="255" width="26" height="5" rx="1"/>
    <rect x="824" y="318" width="24" height="4" rx="1"/>
    <path d="M828,165 Q827,150 834,136 Q836,130 836,120 Q836,130 838,136 Q845,150 844,165Z"/>
    <rect x="834" y="95" width="4" height="25"/>
    <path d="M829,89 A8,8 0 1,0 843,89 A6,6 0 1,1 829,89Z"/>
    <circle cx="836" cy="78" r="3"/>

    <!-- ── Dome E (small right) ── -->
    <rect x="855" y="328" width="95" height="72"/>
    <path d="M872,328 Q872,302 888,287 Q898,278 902,258 Q906,278 916,287 Q932,302 932,328Z"/>

    <!-- small buildings -->
    <rect x="955" y="348" width="20" height="52"/>
    <rect x="979" y="340" width="18" height="60"/>

    <!-- Minaret E-F -->
    <rect x="1005" y="215" width="13" height="185"/>
    <rect x="1000" y="245" width="23" height="5" rx="1"/>
    <rect x="1001" y="298" width="21" height="4" rx="1"/>
    <path d="M1005,215 Q1004,203 1010,191 Q1012,186 1012,178 Q1012,186 1014,191 Q1020,203 1019,215Z"/>
    <rect x="1010" y="158" width="3" height="20"/>
    <path d="M1006,153 A6,6 0 1,0 1018,153 A4.8,4.8 0 1,1 1006,153Z"/>
    <circle cx="1012" cy="145" r="2"/>

    <!-- ── Dome F (medium right) ── -->
    <rect x="1030" y="315" width="125" height="85"/>
    <path d="M1055,315 Q1055,280 1080,260 Q1092,250 1095,218 Q1098,250 1110,260 Q1135,280 1135,315Z"/>

    <!-- Minaret right -->
    <rect x="1165" y="228" width="12" height="172"/>
    <rect x="1161" y="256" width="20" height="4" rx="1"/>
    <rect x="1162" y="308" width="18" height="3" rx="1"/>
    <path d="M1165,228 Q1164,218 1169,208 Q1171,204 1171,197 Q1171,204 1173,208 Q1178,218 1177,228Z"/>
    <rect x="1169" y="180" width="3" height="17"/>
    <path d="M1166,176 A5,5 0 1,0 1176,176 A4,4 0 1,1 1166,176Z"/>

    <!-- ── Dome G (far right) ── -->
    <rect x="1188" y="322" width="110" height="78"/>
    <path d="M1208,322 Q1208,292 1228,275 Q1240,264 1245,240 Q1250,264 1262,275 Q1282,292 1282,322Z"/>

    <!-- Far right buildings -->
    <rect x="1305" y="345" width="22" height="55"/>
    <rect x="1332" y="338" width="18" height="62"/>
    <rect x="1355" y="348" width="24" height="52"/>
    <rect x="1384" y="340" width="20" height="60"/>
    <rect x="1408" y="350" width="18" height="50"/>
    <rect x="1430" y="335" width="15" height="65"/>

    <!-- Ground bar -->
    <rect x="0" y="396" width="1440" height="4"/>
  </g>
</svg>
