<svg xmlns="http://www.w3.org/2000/svg" viewBox="0 0 1440 400" preserveAspectRatio="none">
  <defs>
    <linearGradient id="sg" x1="0" y1="0" x2="0" y2="1">
      <stop offset="0%" stop-color="rgba(201,168,76,0.18)"/>
      <stop offset="100%" stop-color="rgba(201,168,76,0.06)"/>
    </linearGradient>
  </defs>

  <!-- Background buildings layer (subtle) -->
  <g opacity="0.3">
    <!-- Far background buildings -->
    <rect x="50" y="300" width="40" height="100" fill="rgba(201,168,76,0.08)"/>
    <rect x="100" y="280" width="35" height="120" fill="rgba(201,168,76,0.08)"/>
    <rect x="160" y="310" width="30" height="90" fill="rgba(201,168,76,0.06)"/>
    <rect x="1250" y="290" width="35" height="110" fill="rgba(201,168,76,0.08)"/>
    <rect x="1300" y="305" width="40" height="95" fill="rgba(201,168,76,0.06)"/>
    <rect x="1370" y="285" width="30" height="115" fill="rgba(201,168,76,0.08)"/>
  </g>

  <!-- ===== MOSQUE 1 (Left) - Small mosque ===== -->
  <g opacity="0.7">
    <!-- Main body -->
    <rect x="200" y="290" width="120" height="110" rx="2" fill="rgba(201,168,76,0.10)"/>
    <!-- Dome (onion shape) -->
    <path d="M260,290 C260,290 230,285 225,265 C220,245 235,220 260,200 C285,220 300,245 295,265 C290,285 260,290 260,290Z" fill="rgba(201,168,76,0.12)"/>
    <!-- Dome finial -->
    <line x1="260" y1="200" x2="260" y2="185" stroke="rgba(201,168,76,0.15)" stroke-width="2"/>
    <!-- Crescent -->
    <path d="M255,180 A6,6 0 1,1 265,180 A5,5 0 1,0 255,180" fill="rgba(201,168,76,0.18)"/>
    <!-- Minaret left -->
    <rect x="195" y="240" width="12" height="160" fill="rgba(201,168,76,0.10)"/>
    <path d="M201,240 C201,240 193,237 191,228 C189,219 195,210 201,202 C207,210 213,219 211,228 C209,237 201,240 201,240Z" fill="rgba(201,168,76,0.12)"/>
    <line x1="201" y1="202" x2="201" y2="192" stroke="rgba(201,168,76,0.15)" stroke-width="1.5"/>
    <path d="M198,189 A4,4 0 1,1 204,189 A3,3 0 1,0 198,189" fill="rgba(201,168,76,0.16)"/>
    <!-- Minaret balcony -->
    <rect x="192" y="260" width="18" height="3" rx="1" fill="rgba(201,168,76,0.10)"/>
    <!-- Minaret right -->
    <rect x="313" y="240" width="12" height="160" fill="rgba(201,168,76,0.10)"/>
    <path d="M319,240 C319,240 311,237 309,228 C307,219 313,210 319,202 C325,210 331,219 329,228 C327,237 319,240 319,240Z" fill="rgba(201,168,76,0.12)"/>
    <line x1="319" y1="202" x2="319" y2="192" stroke="rgba(201,168,76,0.15)" stroke-width="1.5"/>
    <path d="M316,189 A4,4 0 1,1 322,189 A3,3 0 1,0 316,189" fill="rgba(201,168,76,0.16)"/>
    <rect x="310" y="260" width="18" height="3" rx="1" fill="rgba(201,168,76,0.10)"/>
    <!-- Door arch -->
    <path d="M248,400 L248,340 Q260,320 272,340 L272,400Z" fill="rgba(201,168,76,0.08)"/>
    <!-- Windows -->
    <path d="M220,320 Q225,312 230,320 L230,335 L220,335Z" fill="rgba(201,168,76,0.08)"/>
    <path d="M290,320 Q295,312 300,320 L300,335 L290,335Z" fill="rgba(201,168,76,0.08)"/>
  </g>

  <!-- ===== MOSQUE 2 (Center) - Grand masjid (largest) ===== -->
  <g opacity="0.85">
    <!-- Main body -->
    <rect x="560" y="250" width="200" height="150" rx="3" fill="rgba(201,168,76,0.12)"/>
    <!-- Central large dome -->
    <path d="M660,250 C660,250 610,242 600,210 C590,178 615,140 660,100 C705,140 730,178 720,210 C710,242 660,250 660,250Z" fill="rgba(201,168,76,0.14)"/>
    <!-- Dome finial -->
    <line x1="660" y1="100" x2="660" y2="78" stroke="rgba(201,168,76,0.18)" stroke-width="2.5"/>
    <!-- Crescent -->
    <path d="M653,72 A8,8 0 1,1 667,72 A6.5,6.5 0 1,0 653,72" fill="rgba(201,168,76,0.22)"/>
    <!-- Star above crescent -->
    <circle cx="660" cy="62" r="2" fill="rgba(201,168,76,0.20)"/>

    <!-- Side domes (left) -->
    <path d="M595,250 C595,250 575,247 572,232 C569,217 578,200 595,185 C612,200 621,217 618,232 C615,247 595,250 595,250Z" fill="rgba(201,168,76,0.11)"/>
    <!-- Side domes (right) -->
    <path d="M725,250 C725,250 705,247 702,232 C699,217 708,200 725,185 C742,200 751,217 748,232 C745,247 725,250 725,250Z" fill="rgba(201,168,76,0.11)"/>

    <!-- Tall minaret far left -->
    <rect x="535" y="180" width="16" height="220" fill="rgba(201,168,76,0.12)"/>
    <path d="M543,180 C543,180 531,176 528,162 C525,148 534,132 543,118 C552,132 561,148 558,162 C555,176 543,180 543,180Z" fill="rgba(201,168,76,0.14)"/>
    <line x1="543" y1="118" x2="543" y2="102" stroke="rgba(201,168,76,0.18)" stroke-width="2"/>
    <path d="M538,97 A6,6 0 1,1 548,97 A4.5,4.5 0 1,0 538,97" fill="rgba(201,168,76,0.20)"/>
    <!-- Balconies -->
    <rect x="531" y="210" width="24" height="3" rx="1" fill="rgba(201,168,76,0.11)"/>
    <rect x="533" y="260" width="20" height="3" rx="1" fill="rgba(201,168,76,0.09)"/>

    <!-- Tall minaret far right -->
    <rect x="769" y="180" width="16" height="220" fill="rgba(201,168,76,0.12)"/>
    <path d="M777,180 C777,180 765,176 762,162 C759,148 768,132 777,118 C786,132 795,148 792,162 C789,176 777,180 777,180Z" fill="rgba(201,168,76,0.14)"/>
    <line x1="777" y1="118" x2="777" y2="102" stroke="rgba(201,168,76,0.18)" stroke-width="2"/>
    <path d="M772,97 A6,6 0 1,1 782,97 A4.5,4.5 0 1,0 772,97" fill="rgba(201,168,76,0.20)"/>
    <rect x="765" y="210" width="24" height="3" rx="1" fill="rgba(201,168,76,0.11)"/>
    <rect x="767" y="260" width="20" height="3" rx="1" fill="rgba(201,168,76,0.09)"/>

    <!-- Door arches -->
    <path d="M640,400 L640,330 Q660,300 680,330 L680,400Z" fill="rgba(201,168,76,0.09)"/>
    <path d="M580,400 L580,345 Q590,330 600,345 L600,400Z" fill="rgba(201,168,76,0.07)"/>
    <path d="M720,400 L720,345 Q730,330 740,345 L740,400Z" fill="rgba(201,168,76,0.07)"/>
    <!-- Windows row -->
    <path d="M585,290 Q592,280 599,290 L599,305 L585,305Z" fill="rgba(201,168,76,0.07)"/>
    <path d="M615,290 Q622,280 629,290 L629,305 L615,305Z" fill="rgba(201,168,76,0.07)"/>
    <path d="M691,290 Q698,280 705,290 L705,305 L691,305Z" fill="rgba(201,168,76,0.07)"/>
    <path d="M721,290 Q728,280 735,290 L735,305 L721,305Z" fill="rgba(201,168,76,0.07)"/>
  </g>

  <!-- ===== MOSQUE 3 (Right) - Medium mosque ===== -->
  <g opacity="0.7">
    <!-- Main body -->
    <rect x="1050" y="275" width="140" height="125" rx="2" fill="rgba(201,168,76,0.10)"/>
    <!-- Dome -->
    <path d="M1120,275 C1120,275 1085,270 1078,245 C1071,220 1090,190 1120,160 C1150,190 1169,220 1162,245 C1155,270 1120,275 1120,275Z" fill="rgba(201,168,76,0.13)"/>
    <!-- Dome finial -->
    <line x1="1120" y1="160" x2="1120" y2="142" stroke="rgba(201,168,76,0.16)" stroke-width="2"/>
    <!-- Crescent -->
    <path d="M1114,137 A7,7 0 1,1 1126,137 A5.5,5.5 0 1,0 1114,137" fill="rgba(201,168,76,0.19)"/>
    <!-- Minaret left -->
    <rect x="1038" y="225" width="14" height="175" fill="rgba(201,168,76,0.10)"/>
    <path d="M1045,225 C1045,225 1035,222 1033,210 C1031,198 1038,185 1045,174 C1052,185 1059,198 1057,210 C1055,222 1045,225 1045,225Z" fill="rgba(201,168,76,0.12)"/>
    <line x1="1045" y1="174" x2="1045" y2="162" stroke="rgba(201,168,76,0.15)" stroke-width="1.5"/>
    <path d="M1041,158 A5,5 0 1,1 1049,158 A4,4 0 1,0 1041,158" fill="rgba(201,168,76,0.17)"/>
    <rect x="1035" y="250" width="20" height="3" rx="1" fill="rgba(201,168,76,0.10)"/>
    <!-- Minaret right -->
    <rect x="1188" y="225" width="14" height="175" fill="rgba(201,168,76,0.10)"/>
    <path d="M1195,225 C1195,225 1185,222 1183,210 C1181,198 1188,185 1195,174 C1202,185 1209,198 1207,210 C1205,222 1195,225 1195,225Z" fill="rgba(201,168,76,0.12)"/>
    <line x1="1195" y1="174" x2="1195" y2="162" stroke="rgba(201,168,76,0.15)" stroke-width="1.5"/>
    <path d="M1191,158 A5,5 0 1,1 1199,158 A4,4 0 1,0 1191,158" fill="rgba(201,168,76,0.17)"/>
    <rect x="1185" y="250" width="20" height="3" rx="1" fill="rgba(201,168,76,0.10)"/>
    <!-- Door -->
    <path d="M1105,400 L1105,345 Q1120,322 1135,345 L1135,400Z" fill="rgba(201,168,76,0.08)"/>
    <!-- Windows -->
    <path d="M1065,310 Q1072,300 1079,310 L1079,325 L1065,325Z" fill="rgba(201,168,76,0.07)"/>
    <path d="M1161,310 Q1168,300 1175,310 L1175,325 L1161,325Z" fill="rgba(201,168,76,0.07)"/>
  </g>

  <!-- ===== Small decorative elements ===== -->
  <!-- Small dome left edge -->
  <g opacity="0.5">
    <rect x="20" y="340" width="60" height="60" fill="rgba(201,168,76,0.08)"/>
    <path d="M50,340 C50,340 30,336 27,322 C24,308 35,295 50,280 C65,295 76,308 73,322 C70,336 50,340 50,340Z" fill="rgba(201,168,76,0.10)"/>
    <line x1="50" y1="280" x2="50" y2="270" stroke="rgba(201,168,76,0.12)" stroke-width="1.5"/>
    <path d="M47,267 A4,4 0 1,1 53,267 A3,3 0 1,0 47,267" fill="rgba(201,168,76,0.14)"/>
  </g>

  <!-- Small dome right edge -->
  <g opacity="0.5">
    <rect x="1360" y="330" width="70" height="70" fill="rgba(201,168,76,0.08)"/>
    <path d="M1395,330 C1395,330 1373,326 1370,310 C1367,294 1379,278 1395,262 C1411,278 1423,294 1420,310 C1417,326 1395,330 1395,330Z" fill="rgba(201,168,76,0.10)"/>
    <line x1="1395" y1="262" x2="1395" y2="250" stroke="rgba(201,168,76,0.12)" stroke-width="1.5"/>
    <path d="M1391,247 A5,5 0 1,1 1399,247 A4,4 0 1,0 1391,247" fill="rgba(201,168,76,0.14)"/>
  </g>

  <!-- Palm trees -->
  <g opacity="0.4">
    <!-- Tree 1 -->
    <rect x="430" y="320" width="4" height="80" fill="rgba(201,168,76,0.10)"/>
    <path d="M432,320 C420,310 415,295 420,285 C425,290 430,300 432,320Z" fill="rgba(201,168,76,0.10)"/>
    <path d="M432,320 C444,310 449,295 444,285 C439,290 434,300 432,320Z" fill="rgba(201,168,76,0.10)"/>
    <path d="M432,315 C425,300 428,283 435,278 C434,288 432,300 432,315Z" fill="rgba(201,168,76,0.08)"/>
    <!-- Tree 2 -->
    <rect x="890" y="330" width="4" height="70" fill="rgba(201,168,76,0.10)"/>
    <path d="M892,330 C880,320 875,305 880,295 C885,300 890,310 892,330Z" fill="rgba(201,168,76,0.10)"/>
    <path d="M892,330 C904,320 909,305 904,295 C899,300 894,310 892,330Z" fill="rgba(201,168,76,0.10)"/>
    <!-- Tree 3 -->
    <rect x="970" y="340" width="3" height="60" fill="rgba(201,168,76,0.08)"/>
    <path d="M971,340 C962,332 958,320 962,312 C966,316 970,324 971,340Z" fill="rgba(201,168,76,0.08)"/>
    <path d="M971,340 C980,332 984,320 980,312 C976,316 972,324 971,340Z" fill="rgba(201,168,76,0.08)"/>
  </g>

  <!-- Stars scattered -->
  <circle cx="100" cy="80" r="1.5" fill="rgba(201,168,76,0.18)" opacity="0.8"/>
  <circle cx="350" cy="50" r="1" fill="rgba(201,168,76,0.15)" opacity="0.7"/>
  <circle cx="480" cy="70" r="1.5" fill="rgba(201,168,76,0.18)" opacity="0.8"/>
  <circle cx="820" cy="45" r="1.8" fill="rgba(201,168,76,0.20)" opacity="0.8"/>
  <circle cx="1000" cy="65" r="1" fill="rgba(201,168,76,0.15)" opacity="0.7"/>
  <circle cx="1280" cy="55" r="1.5" fill="rgba(201,168,76,0.18)" opacity="0.8"/>
  <circle cx="180" cy="120" r="0.8" fill="rgba(201,168,76,0.12)" opacity="0.6"/>
  <circle cx="700" cy="55" r="1.2" fill="rgba(201,168,76,0.16)" opacity="0.7"/>
  <circle cx="1150" cy="85" r="0.8" fill="rgba(201,168,76,0.12)" opacity="0.6"/>

  <!-- Ground line -->
  <rect x="0" y="395" width="1440" height="5" fill="rgba(201,168,76,0.06)"/>
</svg>
