<svg xmlns="http://www.w3.org/2000/svg" viewBox="0 0 1440 400" preserveAspectRatio="none">
  <!-- Single continuous silhouette path - solid like the reference image -->
  <path fill="rgba(201,168,76,0.25)" d="
    M0,400 L0,340

    L15,340 L15,320 L25,320 L25,300 L30,300 L30,280 L35,280 L35,300 L40,300 L40,320 L50,320 L50,340

    L55,340 L55,310 L60,310 L60,290 L65,290 L65,310 L70,310 L70,340

    L80,340 L80,320

    L90,320 L90,300
    L95,300 L95,280
    Q100,250 105,240
    Q120,200 135,195
    Q150,200 165,240
    Q170,250 175,280
    L180,280 L180,300
    L185,300 L185,320

    L190,320 L190,340

    L195,340 L195,310 L200,310 L200,285 L205,285 L205,310 L210,310 L210,340

    L220,340 L220,320 L230,320 L230,300 L235,300 L235,280 L240,280 L240,300 L245,300 L245,320 L255,320 L255,340

    L265,340 L265,310

    L270,310 L270,290
    Q275,265 280,255
    Q290,225 310,215
    Q330,225 340,255
    Q345,265 350,290
    L355,290 L355,310

    L360,310 L360,340

    L370,340 L370,320 L375,320 L375,300 L380,300 L380,320 L385,320 L385,340

    L395,340 L395,300 L400,300 L400,270 L405,270 L405,300 L410,300 L410,340

    L420,340

    L425,340 L425,310
    L430,310 L430,280
    Q440,240 460,225
    Q480,215 500,225
    Q520,240 530,280
    L535,280 L535,310
    L540,310 L540,340

    L548,340 L548,320 L553,320 L553,300 L558,300 L558,320 L563,320 L563,340

    L575,340 L575,310 L580,310 L580,290 L585,290 L585,260 L590,260 L590,290 L595,290 L595,310 L600,310 L600,340

    L610,340 L610,310

    L620,310 L620,270
    L625,270
    Q630,240 640,215
    Q660,160 700,140
    Q740,160 760,215
    Q770,240 775,270
    L780,270
    L785,270 L785,310

    L790,310 L790,340

    L800,340 L800,310 L805,310 L805,290 L810,290 L810,310 L815,310 L815,340

    L820,340 L820,300 L825,300 L825,270 L830,270 L830,300 L835,300 L835,340

    L845,340

    L855,340 L855,310
    L860,310 L860,280
    Q870,245 885,230
    Q900,220 920,230
    Q935,245 945,280
    L950,280 L950,310
    L955,310 L955,340

    L960,340 L960,320 L965,320 L965,300 L970,300 L970,320 L975,320 L975,340

    L985,340 L985,300 L990,300 L990,270 L995,270 L995,300 L1000,300 L1000,340

    L1010,340 L1010,320 L1020,320 L1020,340

    L1030,340 L1030,310

    L1035,310 L1035,280
    Q1040,255 1050,240
    Q1070,200 1100,185
    Q1130,200 1150,240
    Q1160,255 1165,280
    L1170,280 L1170,310

    L1175,310 L1175,340

    L1185,340 L1185,310 L1190,310 L1190,290 L1195,290 L1195,310 L1200,310 L1200,340

    L1210,340 L1210,320 L1215,320 L1215,300 L1220,300 L1220,280 L1225,280 L1225,300 L1230,300 L1230,320 L1235,320 L1235,340

    L1245,340 L1245,310

    L1250,310 L1250,285
    Q1260,250 1278,235
    Q1295,228 1312,235
    Q1330,250 1340,285
    L1345,285 L1345,310

    L1350,310 L1350,340

    L1355,340 L1355,320 L1360,320 L1360,300 L1365,300 L1365,320 L1370,320 L1370,340

    L1380,340 L1380,310 L1385,310 L1385,290 L1390,290 L1390,310 L1395,310 L1395,340

    L1405,340 L1405,320 L1415,320 L1415,300 L1420,300 L1420,320 L1430,320 L1430,340

    L1440,340 L1440,400 Z
  "/>

  <!-- Crescent moons on top of each dome -->
  <!-- Dome 1 (small, x~135) -->
  <line x1="135" y1="195" x2="135" y2="175" stroke="rgba(201,168,76,0.35)" stroke-width="2"/>
  <path d="M129,168 A7,7 0 1,0 141,168 A5.5,5.5 0 1,1 129,168Z" fill="rgba(201,168,76,0.35)"/>

  <!-- Dome 2 (x~310) -->
  <line x1="310" y1="215" x2="310" y2="192" stroke="rgba(201,168,76,0.35)" stroke-width="2"/>
  <path d="M303,185 A8,8 0 1,0 317,185 A6.5,6.5 0 1,1 303,185Z" fill="rgba(201,168,76,0.35)"/>

  <!-- Dome 3 (x~480) -->
  <line x1="480" y1="215" x2="480" y2="192" stroke="rgba(201,168,76,0.35)" stroke-width="2"/>
  <path d="M473,185 A8,8 0 1,0 487,185 A6.5,6.5 0 1,1 473,185Z" fill="rgba(201,168,76,0.35)"/>

  <!-- Dome 4 (Grand - x~700) -->
  <line x1="700" y1="140" x2="700" y2="108" stroke="rgba(201,168,76,0.40)" stroke-width="3"/>
  <path d="M691,100 A10,10 0 1,0 709,100 A8,8 0 1,1 691,100Z" fill="rgba(201,168,76,0.40)"/>

  <!-- Dome 5 (x~905) -->
  <line x1="903" y1="220" x2="903" y2="198" stroke="rgba(201,168,76,0.35)" stroke-width="2"/>
  <path d="M896,191 A8,8 0 1,0 910,191 A6.5,6.5 0 1,1 896,191Z" fill="rgba(201,168,76,0.35)"/>

  <!-- Dome 6 (x~1100) -->
  <line x1="1100" y1="185" x2="1100" y2="160" stroke="rgba(201,168,76,0.38)" stroke-width="2.5"/>
  <path d="M1092,152 A9,9 0 1,0 1108,152 A7,7 0 1,1 1092,152Z" fill="rgba(201,168,76,0.38)"/>

  <!-- Dome 7 (x~1295) -->
  <line x1="1295" y1="228" x2="1295" y2="208" stroke="rgba(201,168,76,0.35)" stroke-width="2"/>
  <path d="M1288,201 A8,8 0 1,0 1302,201 A6.5,6.5 0 1,1 1288,201Z" fill="rgba(201,168,76,0.35)"/>

  <!-- Stars -->
  <circle cx="80" cy="50" r="1.5" fill="rgba(201,168,76,0.30)"/>
  <circle cx="200" cy="80" r="1" fill="rgba(201,168,76,0.25)"/>
  <circle cx="350" cy="40" r="1.8" fill="rgba(201,168,76,0.32)"/>
  <circle cx="500" cy="65" r="1.2" fill="rgba(201,168,76,0.28)"/>
  <circle cx="650" cy="35" r="1.5" fill="rgba(201,168,76,0.30)"/>
  <circle cx="780" cy="70" r="1" fill="rgba(201,168,76,0.25)"/>
  <circle cx="900" cy="50" r="1.8" fill="rgba(201,168,76,0.32)"/>
  <circle cx="1050" cy="40" r="1.2" fill="rgba(201,168,76,0.28)"/>
  <circle cx="1200" cy="60" r="1.5" fill="rgba(201,168,76,0.30)"/>
  <circle cx="1350" cy="45" r="1" fill="rgba(201,168,76,0.25)"/>
  <circle cx="450" cy="30" r="1" fill="rgba(201,168,76,0.22)"/>
  <circle cx="1100" cy="75" r="0.8" fill="rgba(201,168,76,0.20)"/>
</svg>
