<svg xmlns="http://www.w3.org/2000/svg" viewBox="0 0 1440 320" preserveAspectRatio="none">

  <!-- Entire skyline as ONE continuous solid silhouette -->
  <path fill="#1a5c4c" d="
    M0,320 L0,280

    L8,280 L8,260 L18,260 L18,245 L22,245 L22,230 L26,230 L26,245 L30,245 L30,260 L40,260 L40,280

    L50,280 L50,260 L55,260 L55,245 L60,245 L60,260 L65,260 L65,280

    L75,280 L75,265 L85,265 L85,280

    L92,280 L92,260 L96,260 L96,245

    C96,245 100,220 108,200
    C116,175 128,160 148,155
    C168,160 180,175 188,200
    C196,220 200,245 200,245

    L204,245 L204,260 L208,260 L208,280

    L215,280 L215,260 L220,260 L220,248 L224,248 L224,260 L229,260 L229,280

    L238,280 L238,265 L245,265 L245,255 L249,255 L249,240 L253,240 L253,255 L257,255 L257,265 L264,265 L264,280

    L272,280 L272,262 L278,262 L278,280

    L288,280 L288,260

    C288,260 292,240 300,222
    C310,198 322,182 348,175
    C374,182 386,198 396,222
    C404,240 408,260 408,260

    L412,260 L412,280

    L420,280 L420,265 L425,265 L425,255 L429,255 L429,265 L434,265 L434,280

    L442,280 L442,260 L448,260 L448,248 L452,248 L452,260 L458,260 L458,280

    L465,280 L465,270 L475,270 L475,280

    L482,280 L482,260

    C482,260 484,245 490,228
    C498,205 510,188 535,178
    C560,188 572,205 580,228
    C586,245 588,260 588,260

    L592,260 L592,280

    L598,280 L598,265 L604,265 L604,255 L608,255 L608,240 L612,240 L612,255 L616,255 L616,265 L622,265 L622,280

    L630,280 L630,265 L636,265 L636,280

    L644,280 L644,260 L648,260 L648,245

    C648,245 652,215 664,180
    C678,140 695,110 720,95
    C745,110 762,140 776,180
    C788,215 792,245 792,245

    L796,245 L796,260 L800,260 L800,280

    L808,280 L808,262 L815,262 L815,250 L819,250 L819,262 L826,262 L826,280

    L833,280 L833,265 L840,265 L840,258 L844,258 L844,240 L848,240 L848,258 L852,258 L852,265 L859,265 L859,280

    L868,280 L868,270 L876,270 L876,280

    L884,280 L884,260

    C884,260 888,240 896,222
    C906,198 918,182 944,175
    C970,182 982,198 992,222
    C1000,240 1004,260 1004,260

    L1008,260 L1008,280

    L1016,280 L1016,265 L1022,265 L1022,255 L1026,255 L1026,265 L1032,265 L1032,280

    L1040,280 L1040,262 L1046,262 L1046,280

    L1055,280 L1055,260 L1060,260 L1060,248

    C1060,248 1064,225 1074,202
    C1086,175 1100,158 1128,148
    C1156,158 1170,175 1182,202
    C1192,225 1196,248 1196,248

    L1200,248 L1200,260 L1205,260 L1205,280

    L1212,280 L1212,265 L1218,265 L1218,255 L1222,255 L1222,240 L1226,240 L1226,255 L1230,255 L1230,265 L1236,265 L1236,280

    L1244,280 L1244,268 L1252,268 L1252,280

    L1260,280 L1260,262

    C1260,260 1264,242 1272,225
    C1280,205 1292,192 1312,186
    C1332,192 1344,205 1352,225
    C1360,242 1364,260 1364,262

    L1368,262 L1368,280

    L1375,280 L1375,265 L1380,265 L1380,253 L1384,253 L1384,265 L1389,265 L1389,280

    L1396,280 L1396,268 L1402,268 L1402,255 L1406,255 L1406,268 L1412,268 L1412,280

    L1420,280 L1420,265 L1428,265 L1428,255 L1432,255 L1432,265 L1440,265

    L1440,320 Z
  "/>

  <!-- Crescent moons on domes -->
  <!-- Dome 1 (x~148) -->
  <line x1="148" y1="155" x2="148" y2="136" stroke="#1a5c4c" stroke-width="2.5"/>
  <path d="M141,130 A8,8 0 1,0 155,130 A6,6 0 1,1 141,130Z" fill="#1a5c4c"/>
  <circle cx="148" cy="122" r="2" fill="#1a5c4c"/>

  <!-- Dome 2 (x~348) -->
  <line x1="348" y1="175" x2="348" y2="155" stroke="#1a5c4c" stroke-width="2.5"/>
  <path d="M341,149 A8,8 0 1,0 355,149 A6,6 0 1,1 341,149Z" fill="#1a5c4c"/>
  <circle cx="348" cy="141" r="2" fill="#1a5c4c"/>

  <!-- Dome 3 (x~535) -->
  <line x1="535" y1="178" x2="535" y2="156" stroke="#1a5c4c" stroke-width="2.5"/>
  <path d="M528,150 A8,8 0 1,0 542,150 A6,6 0 1,1 528,150Z" fill="#1a5c4c"/>
  <circle cx="535" cy="142" r="2" fill="#1a5c4c"/>

  <!-- Dome 4 GRAND (x~720) -->
  <line x1="720" y1="95" x2="720" y2="68" stroke="#1a5c4c" stroke-width="3"/>
  <path d="M711,60 A11,11 0 1,0 729,60 A8.5,8.5 0 1,1 711,60Z" fill="#1a5c4c"/>
  <circle cx="720" cy="50" r="3" fill="#1a5c4c"/>

  <!-- Dome 5 (x~944) -->
  <line x1="944" y1="175" x2="944" y2="155" stroke="#1a5c4c" stroke-width="2.5"/>
  <path d="M937,149 A8,8 0 1,0 951,149 A6,6 0 1,1 937,149Z" fill="#1a5c4c"/>
  <circle cx="944" cy="141" r="2" fill="#1a5c4c"/>

  <!-- Dome 6 (x~1128) -->
  <line x1="1128" y1="148" x2="1128" y2="125" stroke="#1a5c4c" stroke-width="2.5"/>
  <path d="M1120,118 A9,9 0 1,0 1136,118 A7,7 0 1,1 1120,118Z" fill="#1a5c4c"/>
  <circle cx="1128" cy="109" r="2.5" fill="#1a5c4c"/>

  <!-- Dome 7 (x~1312) -->
  <line x1="1312" y1="186" x2="1312" y2="168" stroke="#1a5c4c" stroke-width="2"/>
  <path d="M1306,162 A7,7 0 1,0 1318,162 A5.5,5.5 0 1,1 1306,162Z" fill="#1a5c4c"/>
  <circle cx="1312" cy="155" r="2" fill="#1a5c4c"/>

  <!-- Stars -->
  <circle cx="80" cy="30" r="1.5" fill="rgba(201,168,76,0.30)"/>
  <circle cx="250" cy="50" r="1" fill="rgba(201,168,76,0.25)"/>
  <circle cx="400" cy="25" r="1.8" fill="rgba(201,168,76,0.30)"/>
  <circle cx="580" cy="40" r="1.2" fill="rgba(201,168,76,0.25)"/>
  <circle cx="720" cy="20" r="1.5" fill="rgba(201,168,76,0.28)"/>
  <circle cx="860" cy="35" r="1" fill="rgba(201,168,76,0.22)"/>
  <circle cx="1050" cy="28" r="1.5" fill="rgba(201,168,76,0.28)"/>
  <circle cx="1200" cy="42" r="1.2" fill="rgba(201,168,76,0.25)"/>
  <circle cx="1380" cy="30" r="1" fill="rgba(201,168,76,0.22)"/>
  <circle cx="160" cy="60" r="0.8" fill="rgba(201,168,76,0.20)"/>
  <circle cx="650" cy="30" r="1.3" fill="rgba(201,168,76,0.25)"/>
  <circle cx="1100" cy="55" r="0.8" fill="rgba(201,168,76,0.18)"/>
</svg>
