<svg xmlns="http://www.w3.org/2000/svg" viewBox="0 0 1440 420" preserveAspectRatio="none">

  <!-- ============ BACK LAYER (lightest) ============ -->
  <g fill="#0d4a4a" opacity="0.45">
    <!-- Back dome 1 (far left, partial) -->
    <rect x="-30" y="280" width="140" height="140"/>
    <path d="M-30,280 C-30,230 0,180 40,165 C80,180 110,230 110,280 Z"/>

    <!-- Back dome 2 -->
    <rect x="180" y="260" width="130" height="160"/>
    <path d="M180,260 C180,210 210,165 245,150 C280,165 310,210 310,260 Z"/>

    <!-- Back dome 3 -->
    <rect x="430" y="250" width="140" height="170"/>
    <path d="M430,250 C430,195 465,145 500,130 C535,145 570,195 570,250 Z"/>

    <!-- Back dome 4 -->
    <rect x="750" y="245" width="150" height="175"/>
    <path d="M750,245 C750,188 790,135 825,118 C860,135 900,188 900,245 Z"/>

    <!-- Back dome 5 -->
    <rect x="1020" y="255" width="130" height="165"/>
    <path d="M1020,255 C1020,202 1050,155 1085,140 C1120,155 1150,202 1150,255 Z"/>

    <!-- Back dome 6 (far right, partial) -->
    <rect x="1320" y="270" width="140" height="150"/>
    <path d="M1320,270 C1320,218 1355,170 1390,155 C1425,170 1460,218 1460,270 Z"/>

    <!-- Back minarets -->
    <rect x="145" y="200" width="10" height="220"/>
    <rect x="340" y="190" width="10" height="230"/>
    <rect x="600" y="180" width="10" height="240"/>
    <rect x="940" y="185" width="10" height="235"/>
    <rect x="1180" y="195" width="10" height="225"/>
  </g>

  <!-- ============ MIDDLE LAYER ============ -->
  <g fill="#083838" opacity="0.7">
    <!-- Mid dome 1 -->
    <rect x="60" y="270" width="120" height="150"/>
    <path d="M60,270 C60,215 90,162 120,145 C150,162 180,215 180,270 Z"/>
    <!-- Minaret -->
    <rect x="42" y="205" width="12" height="215"/>
    <rect x="38" y="230" width="20" height="4"/>
    <path d="M42,205 C42,195 48,185 48,185 C48,185 54,195 54,205 Z"/>
    <rect x="46" y="172" width="4" height="13"/>
    <circle cx="48" cy="170" r="4"/>

    <!-- Mid dome 2 -->
    <rect x="290" y="260" width="130" height="160"/>
    <path d="M290,260 C290,200 325,148 355,130 C385,148 420,200 420,260 Z"/>
    <!-- Minaret -->
    <rect x="270" y="195" width="12" height="225"/>
    <rect x="266" y="220" width="20" height="4"/>
    <path d="M270,195 C270,185 276,175 276,175 C276,175 282,185 282,195 Z"/>
    <rect x="274" y="162" width="4" height="13"/>
    <circle cx="276" cy="160" r="4"/>

    <!-- Mid dome 3 -->
    <rect x="560" y="255" width="140" height="165"/>
    <path d="M560,255 C560,192 600,138 630,118 C660,138 700,192 700,255 Z"/>

    <!-- Mid dome 4 -->
    <rect x="880" y="260" width="120" height="160"/>
    <path d="M880,260 C880,205 910,155 940,138 C970,155 1000,205 1000,260 Z"/>
    <!-- Minaret -->
    <rect x="1010" y="198" width="12" height="222"/>
    <rect x="1006" y="222" width="20" height="4"/>
    <path d="M1010,198 C1010,188 1016,178 1016,178 C1016,178 1022,188 1022,198 Z"/>
    <rect x="1014" y="165" width="4" height="13"/>
    <circle cx="1016" cy="163" r="4"/>

    <!-- Mid dome 5 -->
    <rect x="1160" y="268" width="110" height="152"/>
    <path d="M1160,268 C1160,215 1188,168 1215,152 C1242,168 1270,215 1270,268 Z"/>

    <!-- Mid dome 6 (far right) -->
    <rect x="1350" y="275" width="100" height="145"/>
    <path d="M1350,275 C1350,228 1375,185 1400,170 C1425,185 1450,228 1450,275 Z"/>
  </g>

  <!-- ============ FRONT LAYER (darkest) ============ -->

  <!-- === Front Dome A (left) - large onion dome === -->
  <g fill="#042020">
    <rect x="80" y="285" width="150" height="135"/>
    <!-- Onion dome: bulges out wider than base, pointed top -->
    <path d="M80,285 C75,250 85,210 105,185 C120,165 140,152 155,148 C170,152 190,165 205,185 C225,210 235,250 230,285 Z"/>
  </g>

  <!-- Minaret far left -->
  <g fill="#042020">
    <rect x="25" y="190" width="14" height="230"/>
    <rect x="20" y="218" width="24" height="5" rx="1"/>
    <rect x="21" y="270" width="22" height="4" rx="1"/>
    <rect x="22" y="330" width="20" height="4" rx="1"/>
    <!-- Small onion dome on minaret -->
    <path d="M25,190 C24,182 28,172 32,168 C36,172 40,182 39,190 Z"/>
    <!-- Finial -->
    <rect x="30" y="148" width="4" height="20"/>
    <!-- Crescent + star -->
    <path d="M27,143 A6,6 0 1,0 37,143 A4.5,4.5 0 1,1 27,143 Z" fill="#042020"/>
    <circle cx="32" cy="136" r="2" fill="#042020"/>
  </g>

  <!-- Tall minaret between A and B -->
  <g fill="#042020">
    <rect x="248" y="168" width="14" height="252"/>
    <rect x="243" y="198" width="24" height="5" rx="1"/>
    <rect x="244" y="258" width="22" height="4" rx="1"/>
    <rect x="245" y="328" width="20" height="4" rx="1"/>
    <path d="M248,168 C247,158 252,148 255,143 C258,148 263,158 262,168 Z"/>
    <rect x="253" y="122" width="4" height="21"/>
    <path d="M249,117 A6,6 0 1,0 261,117 A4.5,4.5 0 1,1 249,117 Z"/>
    <circle cx="255" cy="109" r="2"/>
  </g>

  <!-- Small buildings -->
  <g fill="#042020">
    <rect x="222" y="330" width="20" height="90"/>
    <rect x="275" y="320" width="18" height="100"/>
    <rect x="298" y="335" width="22" height="85"/>
    <rect x="325" y="325" width="16" height="95"/>
  </g>

  <!-- === Front Dome B (center-left) - medium onion dome === -->
  <g fill="#042020">
    <rect x="345" y="290" width="130" height="130"/>
    <path d="M345,290 C340,258 352,222 370,200 C383,183 398,172 410,168 C422,172 437,183 450,200 C468,222 480,258 475,290 Z"/>
  </g>

  <!-- Minaret between B and C -->
  <g fill="#042020">
    <rect x="490" y="178" width="14" height="242"/>
    <rect x="485" y="205" width="24" height="5" rx="1"/>
    <rect x="486" y="265" width="22" height="4" rx="1"/>
    <path d="M490,178 C489,168 494,158 497,153 C500,158 505,168 504,178 Z"/>
    <rect x="495" y="132" width="4" height="21"/>
    <path d="M491,127 A6,6 0 1,0 503,127 A4.5,4.5 0 1,1 491,127 Z"/>
    <circle cx="497" cy="119" r="2"/>
  </g>

  <!-- Small buildings -->
  <g fill="#042020">
    <rect x="515" y="330" width="18" height="90"/>
    <rect x="538" y="318" width="22" height="102"/>
    <rect x="565" y="338" width="16" height="82"/>
  </g>

  <!-- === Front Dome C (CENTER) - GRAND onion dome === -->
  <g fill="#042020">
    <rect x="585" y="265" width="230" height="155"/>
    <!-- Large onion dome - widest, tallest -->
    <path d="M585,265 C578,218 598,165 630,130 C652,108 678,92 700,85 C722,92 748,108 770,130 C802,165 822,218 815,265 Z"/>
  </g>

  <!-- Grand finial with crescent + star -->
  <g fill="#042020">
    <rect x="696" y="52" width="8" height="33"/>
    <!-- Ornamental ring -->
    <rect x="693" y="82" width="14" height="5" rx="2"/>
    <!-- Crescent moon -->
    <path d="M691,42 A10,10 0 1,0 709,42 A8,8 0 1,1 691,42 Z"/>
    <!-- Star -->
    <circle cx="700" cy="32" r="3"/>
  </g>

  <!-- Grand mosque tall minaret left -->
  <g fill="#042020">
    <rect x="560" y="150" width="16" height="270"/>
    <rect x="554" y="178" width="28" height="6" rx="1"/>
    <rect x="555" y="240" width="26" height="5" rx="1"/>
    <rect x="556" y="310" width="24" height="4" rx="1"/>
    <!-- Onion dome on minaret -->
    <path d="M560,150 C559,140 564,128 568,123 C572,128 577,140 576,150 Z"/>
    <rect x="566" y="100" width="4" height="23"/>
    <path d="M562,95 A6,6 0 1,0 574,95 A4.5,4.5 0 1,1 562,95 Z"/>
    <circle cx="568" cy="87" r="2"/>
  </g>

  <!-- Grand mosque tall minaret right -->
  <g fill="#042020">
    <rect x="824" y="150" width="16" height="270"/>
    <rect x="818" y="178" width="28" height="6" rx="1"/>
    <rect x="819" y="240" width="26" height="5" rx="1"/>
    <rect x="820" y="310" width="24" height="4" rx="1"/>
    <path d="M824,150 C823,140 828,128 832,123 C836,128 841,140 840,150 Z"/>
    <rect x="830" y="100" width="4" height="23"/>
    <path d="M826,95 A6,6 0 1,0 838,95 A4.5,4.5 0 1,1 826,95 Z"/>
    <circle cx="832" cy="87" r="2"/>
  </g>

  <!-- Small buildings between C and D -->
  <g fill="#042020">
    <rect x="850" y="325" width="20" height="95"/>
    <rect x="875" y="315" width="18" height="105"/>
    <rect x="898" y="330" width="24" height="90"/>
    <rect x="928" y="320" width="16" height="100"/>
  </g>

  <!-- === Front Dome D (right) - medium onion dome === -->
  <g fill="#042020">
    <rect x="948" y="290" width="130" height="130"/>
    <path d="M948,290 C943,258 955,222 973,200 C986,183 1001,172 1013,168 C1025,172 1040,183 1053,200 C1071,222 1083,258 1078,290 Z"/>
  </g>

  <!-- Minaret between D and E -->
  <g fill="#042020">
    <rect x="1092" y="185" width="14" height="235"/>
    <rect x="1087" y="210" width="24" height="5" rx="1"/>
    <rect x="1088" y="270" width="22" height="4" rx="1"/>
    <path d="M1092,185 C1091,175 1096,165 1099,160 C1102,165 1107,175 1106,185 Z"/>
    <rect x="1097" y="140" width="4" height="20"/>
    <path d="M1093,135 A6,6 0 1,0 1105,135 A4.5,4.5 0 1,1 1093,135 Z"/>
    <circle cx="1099" cy="127" r="2"/>
  </g>

  <!-- Small buildings -->
  <g fill="#042020">
    <rect x="1118" y="330" width="18" height="90"/>
    <rect x="1142" y="322" width="20" height="98"/>
  </g>

  <!-- === Front Dome E (far right) - small onion dome === -->
  <g fill="#042020">
    <rect x="1165" y="300" width="110" height="120"/>
    <path d="M1165,300 C1162,272 1172,242 1186,225 C1196,212 1208,204 1220,200 C1232,204 1244,212 1254,225 C1268,242 1278,272 1275,300 Z"/>
  </g>

  <!-- Minaret far right -->
  <g fill="#042020">
    <rect x="1290" y="205" width="13" height="215"/>
    <rect x="1286" y="230" width="21" height="4" rx="1"/>
    <rect x="1287" y="285" width="20" height="4" rx="1"/>
    <path d="M1290,205 C1289,196 1293,187 1296,183 C1299,187 1303,196 1302,205 Z"/>
    <rect x="1294" y="165" width="4" height="18"/>
    <path d="M1291,160 A5,5 0 1,0 1301,160 A4,4 0 1,1 1291,160 Z"/>
    <circle cx="1296" cy="153" r="2"/>
  </g>

  <!-- Far right buildings -->
  <g fill="#042020">
    <rect x="1315" y="325" width="22" height="95"/>
    <rect x="1342" y="335" width="18" height="85"/>
    <rect x="1365" y="320" width="25" height="100"/>
    <rect x="1395" y="330" width="20" height="90"/>
    <rect x="1420" y="315" width="25" height="105"/>
  </g>

  <!-- Ground bar -->
  <rect x="0" y="416" width="1440" height="4" fill="#042020"/>

  <!-- Stars -->
  <circle cx="95" cy="25" r="1.5" fill="rgba(201,168,76,0.28)"/>
  <circle cx="280" cy="40" r="1.2" fill="rgba(201,168,76,0.22)"/>
  <circle cx="450" cy="20" r="1.8" fill="rgba(201,168,76,0.30)"/>
  <circle cx="620" cy="35" r="1.3" fill="rgba(201,168,76,0.25)"/>
  <circle cx="780" cy="18" r="1.5" fill="rgba(201,168,76,0.28)"/>
  <circle cx="950" cy="30" r="1" fill="rgba(201,168,76,0.20)"/>
  <circle cx="1100" cy="22" r="1.5" fill="rgba(201,168,76,0.26)"/>
  <circle cx="1250" cy="38" r="1.2" fill="rgba(201,168,76,0.22)"/>
  <circle cx="1400" cy="25" r="1" fill="rgba(201,168,76,0.20)"/>
</svg>
