<svg xmlns="http://www.w3.org/2000/svg" viewBox="0 0 1440 400" preserveAspectRatio="none">
  <defs>
    <!-- Gradient for back layer -->
    <linearGradient id="backGrad" x1="0" y1="0" x2="0" y2="1">
      <stop offset="0%" stop-color="#1a7a6a" stop-opacity="0.25"/>
      <stop offset="100%" stop-color="#0d5050" stop-opacity="0.4"/>
    </linearGradient>
    <!-- Gradient for mid layer -->
    <linearGradient id="midGrad" x1="0" y1="0" x2="0" y2="1">
      <stop offset="0%" stop-color="#0f6060" stop-opacity="0.55"/>
      <stop offset="100%" stop-color="#083a3a" stop-opacity="0.75"/>
    </linearGradient>
    <!-- Gradient for front layer -->
    <linearGradient id="frontGrad" x1="0" y1="0" x2="0" y2="1">
      <stop offset="0%" stop-color="#052a2a"/>
      <stop offset="100%" stop-color="#021818"/>
    </linearGradient>
  </defs>

  <!-- ═══════════ LAYER 4 — FARTHEST BACK (very light, barely visible) ═══════════ -->
  <g fill="#2a9a8a" opacity="0.18">
    <!-- Large dome far back left -->
    <path d="M-20,320 L-20,270 C-20,230 20,175 60,155 C80,145 100,145 120,155 C160,175 200,230 200,270 L200,320 Z"/>
    <!-- Large dome far back center-left -->
    <path d="M250,310 L250,260 C250,215 295,160 340,140 C360,130 380,130 400,140 C445,160 490,215 490,260 L490,310 Z"/>
    <!-- Large dome far back center -->
    <path d="M580,300 L580,250 C580,195 635,130 690,108 C715,97 745,97 770,108 C825,130 880,195 880,250 L880,300 Z"/>
    <!-- Large dome far back center-right -->
    <path d="M920,310 L920,258 C920,210 965,155 1010,135 C1035,125 1060,125 1085,135 C1130,155 1175,210 1175,258 L1175,310 Z"/>
    <!-- Large dome far back right -->
    <path d="M1240,315 L1240,265 C1240,220 1280,170 1320,150 C1340,140 1360,140 1380,150 C1420,170 1460,220 1460,265 L1460,315 Z"/>
    <!-- Thin minarets back -->
    <rect x="210" y="220" width="8" height="100"/>
    <rect x="510" y="210" width="8" height="110"/>
    <rect x="890" y="215" width="8" height="105"/>
    <rect x="1195" y="225" width="8" height="95"/>
  </g>

  <!-- ═══════════ LAYER 3 — BACK (light teal) ═══════════ -->
  <g fill="url(#backGrad)">
    <!-- Onion dome B1 -->
    <path d="M30,310 L30,275 C30,255 25,225 40,200 C50,183 65,170 80,162 C95,170 110,183 120,200 C135,225 130,255 130,275 L130,310 Z"/>
    <!-- Onion dome B2 -->
    <path d="M170,300 L170,268 C170,248 162,215 180,188 C192,170 210,155 230,147 C250,155 268,170 280,188 C298,215 290,248 290,268 L290,300 Z"/>
    <!-- Onion dome B3 (tall) -->
    <path d="M350,295 L350,255 C350,230 340,190 365,158 C380,138 400,120 425,110 C450,120 470,138 485,158 C510,190 500,230 500,255 L500,295 Z"/>
    <!-- Onion dome B4 -->
    <path d="M560,305 L560,270 C560,250 553,218 572,192 C585,174 600,160 620,152 C640,160 655,174 668,192 C687,218 680,250 680,270 L680,305 Z"/>
    <!-- Onion dome B5 (large) -->
    <path d="M750,290 L750,248 C750,222 740,180 768,148 C785,126 808,108 835,98 C862,108 885,126 902,148 C930,180 920,222 920,248 L920,290 Z"/>
    <!-- Onion dome B6 -->
    <path d="M980,302 L980,268 C980,248 973,218 992,192 C1005,174 1022,160 1042,152 C1062,160 1079,174 1092,192 C1111,218 1104,248 1104,268 L1104,302 Z"/>
    <!-- Onion dome B7 -->
    <path d="M1140,308 L1140,272 C1140,252 1133,222 1152,196 C1165,178 1182,164 1202,156 C1222,164 1239,178 1252,196 C1271,222 1264,252 1264,272 L1264,308 Z"/>
    <!-- Onion dome B8 (partial right) -->
    <path d="M1340,312 L1340,278 C1340,258 1333,230 1350,206 C1362,190 1378,178 1395,170 C1412,178 1428,190 1440,206 C1457,230 1460,258 1460,278 L1460,312 Z"/>

    <!-- Back minarets with small domes -->
    <rect x="140" y="235" width="9" height="75"/>
    <path d="M140,235 C139,228 142,220 144,217 C146,220 149,228 148,235 Z"/>
    <rect x="305" y="215" width="9" height="85"/>
    <path d="M305,215 C304,207 307,198 310,195 C313,198 316,207 315,215 Z"/>
    <rect x="520" y="225" width="9" height="80"/>
    <path d="M520,225 C519,217 522,208 525,205 C528,208 531,217 530,225 Z"/>
    <rect x="700" y="210" width="9" height="95"/>
    <path d="M700,210 C699,202 702,193 705,190 C708,193 711,202 710,210 Z"/>
    <rect x="935" y="218" width="9" height="84"/>
    <path d="M935,218 C934,210 937,201 940,198 C943,201 946,210 945,218 Z"/>
    <rect x="1115" y="228" width="9" height="80"/>
    <path d="M1115,228 C1114,221 1117,213 1119,210 C1121,213 1124,221 1123,228 Z"/>
    <rect x="1290" y="235" width="9" height="77"/>
    <path d="M1290,235 C1289,228 1292,220 1294,217 C1296,220 1299,228 1298,235 Z"/>

    <!-- Base fill -->
    <rect x="0" y="290" width="1440" height="110"/>
  </g>

  <!-- ═══════════ LAYER 2 — MIDDLE (medium teal) ═══════════ -->
  <g fill="url(#midGrad)">
    <!-- Onion dome M1 -->
    <path d="M-10,330 L-10,298 C-15,270 -20,240 5,210 C20,190 40,175 60,168 C80,175 100,190 115,210 C140,240 135,270 130,298 L130,330 Z"/>
    <!-- Onion dome M2 -->
    <path d="M140,325 L140,290 C135,262 128,230 155,198 C172,178 195,162 218,155 C241,162 264,178 281,198 C308,230 301,262 296,290 L296,325 Z"/>
    <!-- Onion dome M3 (medium-large) -->
    <path d="M330,318 L330,278 C325,248 316,210 348,175 C367,153 392,135 420,126 C448,135 473,153 492,175 C524,210 515,248 510,278 L510,318 Z"/>
    <!-- Buildings/gap fill -->
    <rect x="520" y="330" width="22" height="70"/>
    <rect x="546" y="325" width="18" height="75"/>
    <rect x="570" y="335" width="20" height="65"/>
    <!-- Onion dome M4 -->
    <path d="M600,322 L600,285 C595,258 588,225 615,195 C632,175 652,160 675,153 C698,160 718,175 735,195 C762,225 755,258 750,285 L750,322 Z"/>
    <!-- Onion dome M5 (large) -->
    <path d="M790,312 L790,268 C784,235 775,195 810,155 C832,130 860,110 892,100 C924,110 952,130 974,155 C1009,195 1000,235 994,268 L994,312 Z"/>
    <!-- Onion dome M6 -->
    <path d="M1030,320 L1030,285 C1025,258 1018,228 1045,198 C1060,180 1078,165 1098,158 C1118,165 1136,180 1151,198 C1178,228 1171,258 1166,285 L1166,320 Z"/>
    <!-- Buildings/gap -->
    <rect x="1176" y="328" width="20" height="72"/>
    <rect x="1200" y="322" width="16" height="78"/>
    <!-- Onion dome M7 -->
    <path d="M1225,325 L1225,292 C1220,265 1213,235 1240,208 C1255,190 1272,176 1292,168 C1312,176 1329,190 1344,208 C1371,235 1364,265 1359,292 L1359,325 Z"/>
    <!-- Partial right dome -->
    <path d="M1390,330 L1390,300 C1386,275 1380,250 1402,225 C1414,210 1428,200 1440,195 L1440,330 Z"/>

    <!-- Middle minarets -->
    <rect x="128" y="220" width="11" height="110"/>
    <rect x="124" y="252" width="19" height="4" rx="1"/>
    <path d="M128,220 C127,210 131,198 134,194 C137,198 141,210 140,220 Z"/>
    <rect x="132" y="175" width="4" height="19"/>
    <path d="M129,170 C129,164 132,158 134,156 C136,158 139,164 139,170 Z"/>

    <rect x="312" y="200" width="11" height="130"/>
    <rect x="308" y="232" width="19" height="4" rx="1"/>
    <path d="M312,200 C311,190 315,178 318,174 C321,178 325,190 324,200 Z"/>
    <rect x="316" y="155" width="4" height="19"/>
    <path d="M313,150 C313,144 316,138 318,136 C320,138 323,144 323,150 Z"/>

    <rect x="763" y="195" width="12" height="135"/>
    <rect x="758" y="225" width="22" height="5" rx="1"/>
    <rect x="759" y="275" width="20" height="4" rx="1"/>
    <path d="M763,195 C762,184 767,172 769,168 C771,172 776,184 775,195 Z"/>
    <rect x="767" y="148" width="4" height="20"/>
    <path d="M764,143 C764,137 767,131 769,129 C771,131 774,137 774,143 Z"/>

    <rect x="1008" y="202" width="12" height="128"/>
    <rect x="1004" y="230" width="20" height="4" rx="1"/>
    <path d="M1008,202 C1007,192 1011,180 1014,176 C1017,180 1021,192 1020,202 Z"/>
    <rect x="1012" y="158" width="4" height="18"/>
    <path d="M1009,153 C1009,147 1012,141 1014,139 C1016,141 1019,147 1019,153 Z"/>

    <rect x="1375" y="225" width="10" height="105"/>
    <path d="M1375,225 C1374,216 1378,206 1380,203 C1382,206 1386,216 1385,225 Z"/>

    <!-- Base fill -->
    <rect x="0" y="318" width="1440" height="82"/>
  </g>

  <!-- ═══════════ LAYER 1 — FRONT (darkest) ═══════════ -->
  <g fill="url(#frontGrad)">
    <!-- === Left partial dome === -->
    <path d="M-30,355 L-30,320 C-35,295 -40,265 -15,238 C0,220 18,208 38,200 C58,208 75,220 88,238 C112,265 106,295 102,320 L102,355 Z"/>

    <!-- === Dome F1 === -->
    <path d="M105,350 L105,315 C100,290 92,258 120,228 C137,208 158,192 182,185 C206,192 227,208 244,228 C272,258 264,290 259,315 L259,350 Z"/>

    <!-- Small buildings -->
    <rect x="262" y="348" width="18" height="52"/>
    <rect x="284" y="342" width="15" height="58"/>
    <rect x="302" y="350" width="20" height="50"/>

    <!-- === Dome F2 === -->
    <path d="M325,348 L325,310 C319,280 310,248 342,215 C360,195 382,178 408,170 C434,178 456,195 474,215 C506,248 497,280 491,310 L491,348 Z"/>

    <!-- Minaret between F2 and F3 -->
    <rect x="502" y="205" width="14" height="195"/>
    <rect x="497" y="238" width="24" height="5" rx="1"/>
    <rect x="498" y="290" width="22" height="4" rx="1"/>
    <rect x="499" y="340" width="20" height="4" rx="1"/>
    <path d="M502,205 C501,193 506,180 509,175 C512,180 517,193 516,205 Z"/>
    <rect x="507" y="152" width="4" height="23"/>
    <!-- Crescent -->
    <path d="M503,146 A7,7 0 1,0 515,146 A5.5,5.5 0 1,1 503,146 Z"/>
    <circle cx="509" cy="137" r="2.5"/>

    <!-- Small buildings -->
    <rect x="524" y="345" width="16" height="55"/>
    <rect x="544" y="340" width="20" height="60"/>

    <!-- === GRAND DOME F3 (CENTER) === -->
    <path d="M568,340 L568,288 C560,248 548,195 590,148 C615,118 648,95 688,82 C728,95 761,118 786,148 C828,195 816,248 808,288 L808,340 Z"/>

    <!-- Grand crescent + star finial -->
    <rect x="684" y="42" width="8" height="40"/>
    <rect x="680" y="78" width="16" height="5" rx="2"/>
    <!-- Crescent moon -->
    <path d="M678,32 A12,12 0 1,0 698,32 A9.5,9.5 0 1,1 678,32 Z"/>
    <!-- Star -->
    <polygon points="688,18 690,24 696,24 691,28 693,34 688,30 683,34 685,28 680,24 686,24" fill="url(#frontGrad)"/>

    <!-- Grand left minaret -->
    <rect x="540" y="170" width="16" height="230"/>
    <rect x="534" y="200" width="28" height="6" rx="1"/>
    <rect x="535" y="255" width="26" height="5" rx="1"/>
    <rect x="536" y="315" width="24" height="4" rx="1"/>
    <!-- Minaret dome -->
    <path d="M540,170 C539,158 544,144 548,139 C552,144 557,158 556,170 Z"/>
    <rect x="546" y="115" width="4" height="24"/>
    <path d="M542,109 A7,7 0 1,0 554,109 A5.5,5.5 0 1,1 542,109 Z"/>
    <circle cx="548" cy="100" r="2.5"/>

    <!-- Grand right minaret -->
    <rect x="820" y="170" width="16" height="230"/>
    <rect x="814" y="200" width="28" height="6" rx="1"/>
    <rect x="815" y="255" width="26" height="5" rx="1"/>
    <rect x="816" y="315" width="24" height="4" rx="1"/>
    <path d="M820,170 C819,158 824,144 828,139 C832,144 837,158 836,170 Z"/>
    <rect x="826" y="115" width="4" height="24"/>
    <path d="M822,109 A7,7 0 1,0 834,109 A5.5,5.5 0 1,1 822,109 Z"/>
    <circle cx="828" cy="100" r="2.5"/>

    <!-- Small buildings right of grand -->
    <rect x="845" y="345" width="20" height="55"/>
    <rect x="868" y="338" width="16" height="62"/>
    <rect x="888" y="348" width="22" height="52"/>

    <!-- === Dome F4 === -->
    <path d="M915,345 L915,308 C909,278 900,248 932,218 C950,198 972,182 998,174 C1024,182 1046,198 1064,218 C1096,248 1087,278 1081,308 L1081,345 Z"/>

    <!-- Minaret between F4 and F5 -->
    <rect x="1092" y="215" width="13" height="185"/>
    <rect x="1087" y="245" width="23" height="5" rx="1"/>
    <rect x="1088" y="298" width="21" height="4" rx="1"/>
    <path d="M1092,215 C1091,204 1095,192 1098,188 C1101,192 1105,204 1104,215 Z"/>
    <rect x="1096" y="165" width="4" height="23"/>
    <path d="M1092,159 A7,7 0 1,0 1104,159 A5.5,5.5 0 1,1 1092,159 Z"/>
    <circle cx="1098" cy="150" r="2.5"/>

    <!-- Small buildings -->
    <rect x="1114" y="346" width="18" height="54"/>
    <rect x="1136" y="340" width="14" height="60"/>

    <!-- === Dome F5 === -->
    <path d="M1155,348 L1155,312 C1150,285 1142,255 1170,225 C1186,207 1205,193 1228,186 C1251,193 1270,207 1286,225 C1314,255 1306,285 1301,312 L1301,348 Z"/>

    <!-- Minaret far right -->
    <rect x="1312" y="225" width="12" height="175"/>
    <rect x="1308" y="252" width="20" height="4" rx="1"/>
    <rect x="1309" y="305" width="18" height="4" rx="1"/>
    <path d="M1312,225 C1311,215 1315,204 1318,200 C1321,204 1325,215 1324,225 Z"/>
    <rect x="1316" y="180" width="4" height="20"/>
    <path d="M1313,175 A5,5 0 1,0 1323,175 A4,4 0 1,1 1313,175 Z"/>
    <circle cx="1318" cy="167" r="2"/>

    <!-- Right edge buildings -->
    <rect x="1335" y="342" width="22" height="58"/>
    <rect x="1360" y="348" width="18" height="52"/>
    <rect x="1382" y="338" width="24" height="62"/>
    <rect x="1410" y="345" width="20" height="55"/>
    <rect x="1432" y="335" width="18" height="65"/>

    <!-- Base fill -->
    <rect x="0" y="350" width="1440" height="50"/>
  </g>
</svg>
