<svg xmlns="http://www.w3.org/2000/svg" viewBox="0 0 1440 320" preserveAspectRatio="none">
  <defs>
    <linearGradient id="skylineGrad" x1="0" y1="0" x2="0" y2="1">
      <stop offset="0%" stop-color="rgba(201,168,76,0.15)"/>
      <stop offset="100%" stop-color="rgba(201,168,76,0.05)"/>
    </linearGradient>
  </defs>

  <!-- Main skyline silhouette -->
  <path fill="url(#skylineGrad)" d="
    M0,320 L0,280
    L30,280 L30,260 L35,260 L35,240 L40,240 L40,220 L50,220 L50,240 L55,240 L55,260 L60,260 L60,280
    L90,280 L90,250 L95,250 L95,230 L100,230 L100,250 L105,250 L105,280
    L130,280 L130,260 L140,260 L140,240 L145,235 L150,240 L150,260 L160,260 L160,280

    L200,280 L200,250 L210,250 L210,200 L215,200 L215,180 L218,170 L220,155
    L222,140 L225,125 L227,115 L229,110
    L230,105 L231,110 L233,115 L235,125 L238,140
    L240,155 L242,170 L245,180 L245,200 L250,200 L250,250 L260,250 L260,280

    L290,280 L290,265 L295,265 L295,245 L300,245 L300,265 L305,265 L305,280

    L340,280 L340,255 L345,255 L345,235 L350,230 L355,235 L355,255 L360,255 L360,280
    L380,280 L380,240 L385,240 L385,220 L390,220 L390,200 L395,195 L400,200 L400,220 L405,220 L405,240 L410,240 L410,280

    L450,280
    L450,230 L455,230 L455,190 L460,190 L460,160 L463,150 L465,140
    L468,125 L470,115 L472,105
    L474,95 L476,88 L478,82 L479,78
    L480,60
    L481,78 L482,82 L484,88 L486,95
    L488,105 L490,115 L492,125
    L495,140 L497,150 L500,160 L500,190 L505,190 L505,230 L510,230
    L510,280

    L540,280 L540,250 L545,245 L550,250 L550,280
    L570,280 L570,260 L575,260 L575,245 L580,245 L580,260 L585,260 L585,280

    L620,280 L620,240 L630,240 L630,210 L635,205 L640,210 L640,240 L650,240 L650,280

    L690,280 L690,250 L695,250 L695,220 L700,215 L705,220 L705,250 L710,250 L710,280

    L740,280 L740,260 L745,260 L745,280
    L760,280 L760,250 L770,250 L770,230 L775,225 L780,230 L780,250 L790,250 L790,280

    L830,280
    L830,220 L835,220 L835,185 L840,185 L840,155 L843,145 L845,135
    L848,120 L850,110 L852,100
    L854,92 L856,85 L858,79 L859,75
    L860,55
    L861,75 L862,79 L864,85 L866,92
    L868,100 L870,110 L872,120
    L875,135 L877,145 L880,155 L880,185 L885,185 L885,220 L890,220
    L890,280

    L920,280 L920,260 L925,255 L930,260 L930,280
    L950,280 L950,240 L960,240 L960,220 L965,215 L970,220 L970,240 L980,240 L980,280

    L1010,280 L1010,255 L1015,255 L1015,235 L1020,230 L1025,235 L1025,255 L1030,255 L1030,280

    L1060,280 L1060,250 L1070,250 L1070,220 L1075,215 L1080,220 L1080,250 L1090,250 L1090,280

    L1120,280
    L1120,235 L1125,235 L1125,200 L1130,200 L1130,170 L1133,160 L1135,150
    L1138,135 L1140,120 L1142,110
    L1144,100 L1146,93 L1148,87
    L1150,70
    L1152,87 L1154,93 L1156,100
    L1158,110 L1160,120 L1162,135
    L1165,150 L1167,160 L1170,170 L1170,200 L1175,200 L1175,235 L1180,235
    L1180,280

    L1210,280 L1210,260 L1215,260 L1215,245 L1220,245 L1220,260 L1225,260 L1225,280
    L1250,280 L1250,250 L1255,245 L1260,250 L1260,280

    L1290,280 L1290,265 L1295,265 L1295,240 L1300,235 L1305,240 L1305,265 L1310,265 L1310,280
    L1340,280 L1340,260 L1350,260 L1350,240 L1355,235 L1360,240 L1360,260 L1370,260 L1370,280

    L1400,280 L1400,260 L1405,260 L1405,245 L1410,245 L1410,260 L1415,260 L1415,280
    L1440,280 L1440,320 Z
  "/>

  <!-- Minaret details - thin vertical lines with crescents -->
  <!-- Minaret 1 -->
  <rect x="228" y="105" width="4" height="8" rx="1" fill="rgba(201,168,76,0.12)"/>
  <circle cx="230" cy="100" r="4" fill="none" stroke="rgba(201,168,76,0.12)" stroke-width="1.5"/>

  <!-- Main Mosque Dome (center-left) -->
  <rect x="478" y="55" width="4" height="10" rx="1" fill="rgba(201,168,76,0.12)"/>
  <circle cx="480" cy="50" r="5" fill="none" stroke="rgba(201,168,76,0.15)" stroke-width="1.5"/>
  <!-- Crescent on top -->
  <path d="M478,42 A4,4 0 1,1 482,42 A3,3 0 1,0 478,42" fill="rgba(201,168,76,0.18)"/>

  <!-- Main Mosque Dome (center-right) -->
  <rect x="858" y="50" width="4" height="10" rx="1" fill="rgba(201,168,76,0.12)"/>
  <circle cx="860" cy="45" r="5" fill="none" stroke="rgba(201,168,76,0.15)" stroke-width="1.5"/>
  <path d="M858,37 A4,4 0 1,1 862,37 A3,3 0 1,0 858,37" fill="rgba(201,168,76,0.18)"/>

  <!-- Mosque 3 -->
  <rect x="1148" y="65" width="4" height="10" rx="1" fill="rgba(201,168,76,0.12)"/>
  <circle cx="1150" cy="60" r="4.5" fill="none" stroke="rgba(201,168,76,0.15)" stroke-width="1.5"/>
  <path d="M1148,53 A3.5,3.5 0 1,1 1152,53 A2.5,2.5 0 1,0 1148,53" fill="rgba(201,168,76,0.18)"/>

  <!-- Stars -->
  <circle cx="100" cy="60" r="1.5" fill="rgba(201,168,76,0.2)"/>
  <circle cx="300" cy="40" r="1" fill="rgba(201,168,76,0.15)"/>
  <circle cx="550" cy="30" r="1.5" fill="rgba(201,168,76,0.2)"/>
  <circle cx="750" cy="50" r="1" fill="rgba(201,168,76,0.15)"/>
  <circle cx="1000" cy="35" r="1.5" fill="rgba(201,168,76,0.18)"/>
  <circle cx="1200" cy="55" r="1" fill="rgba(201,168,76,0.15)"/>
  <circle cx="1350" cy="30" r="1.5" fill="rgba(201,168,76,0.2)"/>
  <circle cx="180" cy="90" r="0.8" fill="rgba(201,168,76,0.12)"/>
  <circle cx="650" cy="70" r="0.8" fill="rgba(201,168,76,0.12)"/>
  <circle cx="1100" cy="25" r="1.2" fill="rgba(201,168,76,0.16)"/>
</svg>
