<svg xmlns="http://www.w3.org/2000/svg" viewBox="0 0 1440 400" preserveAspectRatio="none">
  <!--
    Mosque skyline with proper ONION domes:
    - Bulge out wider than the base
    - Taper to a pointed tip at the top
    - Cubic bezier for smooth curves
    - 3 depth layers with gradient
  -->

  <!-- ════════ LAYER 3: FAR BACK (lightest) ════════ -->
  <g opacity="0.22">
    <!-- BG dome 1 -->
    <path d="M20,400 L20,290 L20,290 C20,290 15,240 35,210 C50,188 70,178 90,175 C110,178 130,188 145,210 C165,240 160,290 160,290 L160,400Z" fill="#1a8a7a"/>
    <!-- BG dome 2 -->
    <path d="M200,400 L200,280 C200,280 192,225 218,192 C236,168 260,155 285,152 C310,155 334,168 352,192 C378,225 370,280 370,280 L370,400Z" fill="#1a8a7a"/>
    <!-- BG dome 3 -->
    <path d="M420,400 L420,270 C420,270 410,208 442,172 C462,145 490,130 520,126 C550,130 578,145 598,172 C630,208 620,270 620,270 L620,400Z" fill="#1a8a7a"/>
    <!-- BG dome 4 -->
    <path d="M680,400 L680,265 C680,265 670,200 705,162 C728,135 758,118 790,114 C822,118 852,135 875,162 C910,200 900,265 900,265 L900,400Z" fill="#1a8a7a"/>
    <!-- BG dome 5 -->
    <path d="M960,400 L960,275 C960,275 952,218 980,185 C998,162 1020,150 1045,147 C1070,150 1092,162 1110,185 C1138,218 1130,275 1130,275 L1130,400Z" fill="#1a8a7a"/>
    <!-- BG dome 6 -->
    <path d="M1190,400 L1190,282 C1190,282 1182,230 1208,198 C1225,175 1248,164 1272,160 C1296,164 1319,175 1336,198 C1362,230 1354,282 1354,282 L1354,400Z" fill="#1a8a7a"/>
    <!-- BG minarets -->
    <rect x="170" y="230" width="8" height="170" fill="#1a8a7a"/>
    <rect x="390" y="220" width="8" height="180" fill="#1a8a7a"/>
    <rect x="640" y="210" width="8" height="190" fill="#1a8a7a"/>
    <rect x="925" y="215" width="8" height="185" fill="#1a8a7a"/>
    <rect x="1155" y="225" width="8" height="175" fill="#1a8a7a"/>
    <rect x="1375" y="232" width="8" height="168" fill="#1a8a7a"/>
  </g>

  <!-- ════════ LAYER 2: MIDDLE (medium) ════════ -->
  <g opacity="0.45">
    <!-- MD dome 1 (left partial) -->
    <path d="M-40,400 L-40,295 C-40,295 -48,248 -22,218 C-6,198 16,188 40,185 C64,188 86,198 102,218 C128,248 120,295 120,295 L120,400Z" fill="#0f6858"/>
    <!-- MD dome 2 -->
    <path d="M130,400 L130,285 C130,285 122,232 150,200 C168,178 192,165 218,162 C244,165 268,178 286,200 C314,232 306,285 306,285 L306,400Z" fill="#0f6858"/>
    <!-- MD dome 3 -->
    <path d="M340,400 L340,278 C340,278 330,218 362,182 C382,156 410,140 440,136 C470,140 498,156 518,182 C550,218 540,278 540,278 L540,400Z" fill="#0f6858"/>
    <!-- MD dome 4 (tall) -->
    <path d="M590,400 L590,260 C590,260 578,192 615,150 C640,120 672,102 708,98 C744,102 776,120 801,150 C838,192 826,260 826,260 L826,400Z" fill="#0f6858"/>
    <!-- MD dome 5 -->
    <path d="M870,400 L870,280 C870,280 860,225 890,192 C908,170 932,158 958,155 C984,158 1008,170 1026,192 C1056,225 1046,280 1046,280 L1046,400Z" fill="#0f6858"/>
    <!-- MD dome 6 -->
    <path d="M1080,400 L1080,288 C1080,288 1072,238 1098,208 C1115,188 1136,178 1160,175 C1184,178 1205,188 1222,208 C1248,238 1240,288 1240,288 L1240,400Z" fill="#0f6858"/>
    <!-- MD dome 7 (right) -->
    <path d="M1280,400 L1280,290 C1280,290 1272,242 1298,212 C1315,192 1338,182 1362,178 C1386,182 1409,192 1426,212 C1452,242 1460,290 1460,290 L1460,400Z" fill="#0f6858"/>

    <!-- MD minarets with small onion tops -->
    <rect x="118" y="215" width="10" height="185" fill="#0f6858"/>
    <path d="M118,215 C117,205 121,192 123,188 C125,192 129,205 128,215Z" fill="#0f6858"/>
    <rect x="305" y="205" width="10" height="195" fill="#0f6858"/>
    <path d="M305,205 C304,195 308,182 310,178 C312,182 316,195 315,205Z" fill="#0f6858"/>
    <rect x="545" y="195" width="10" height="205" fill="#0f6858"/>
    <path d="M545,195 C544,185 548,172 550,168 C552,172 556,185 555,195Z" fill="#0f6858"/>
    <rect x="838" y="192" width="11" height="208" fill="#0f6858"/>
    <path d="M838,192 C837,181 842,167 844,163 C846,167 851,181 850,192Z" fill="#0f6858"/>
    <rect x="1052" y="208" width="10" height="192" fill="#0f6858"/>
    <path d="M1052,208 C1051,198 1055,185 1057,181 C1059,185 1063,198 1062,208Z" fill="#0f6858"/>
    <rect x="1255" y="218" width="10" height="182" fill="#0f6858"/>
    <path d="M1255,218 C1254,208 1258,195 1260,191 C1262,195 1266,208 1265,218Z" fill="#0f6858"/>
  </g>

  <!-- ════════ LAYER 1: FRONT (darkest) ════════ -->
  <g>
    <!-- ── Dome A (far left) ── -->
    <path d="M-20,400 L-20,310 C-20,310 -28,268 -5,242 C8,225 26,216 48,213 C70,216 88,225 101,242 C124,268 116,310 116,310 L116,400Z" fill="#042a22"/>

    <!-- Left minaret -->
    <rect x="120" y="210" width="12" height="190" fill="#042a22"/>
    <rect x="116" y="238" width="20" height="4" rx="1" fill="#042a22"/>
    <rect x="117" y="288" width="18" height="3" rx="1" fill="#042a22"/>
    <path d="M120,210 C119,200 124,188 126,184 C128,188 133,200 132,210Z" fill="#042a22"/>
    <!-- Finial -->
    <rect x="124" y="168" width="4" height="16" fill="#042a22"/>
    <path d="M121,164 A6,6 0 1,0 131,164 A4.5,4.5 0 1,1 121,164Z" fill="#042a22"/>

    <!-- Small buildings -->
    <rect x="138" y="345" width="16" height="55" fill="#042a22"/>
    <rect x="158" y="338" width="20" height="62" fill="#042a22"/>
    <rect x="182" y="348" width="14" height="52" fill="#042a22"/>

    <!-- ── Dome B (medium) ── -->
    <path d="M200,400 L200,302 C200,302 190,252 220,220 C240,198 265,185 295,182 C325,185 350,198 370,220 C400,252 390,302 390,302 L390,400Z" fill="#042a22"/>

    <!-- Minaret B-C -->
    <rect x="398" y="192" width="13" height="208" fill="#042a22"/>
    <rect x="393" y="222" width="23" height="5" rx="1" fill="#042a22"/>
    <rect x="394" y="272" width="21" height="4" rx="1" fill="#042a22"/>
    <rect x="395" y="328" width="19" height="3" rx="1" fill="#042a22"/>
    <path d="M398,192 C397,180 402,166 405,161 C408,166 413,180 412,192Z" fill="#042a22"/>
    <rect x="403" y="140" width="4" height="21" fill="#042a22"/>
    <path d="M399,135 A6,6 0 1,0 411,135 A4.8,4.8 0 1,1 399,135Z" fill="#042a22"/>
    <circle cx="405" cy="126" r="2" fill="#042a22"/>

    <!-- Small buildings -->
    <rect x="418" y="340" width="18" height="60" fill="#042a22"/>
    <rect x="440" y="332" width="22" height="68" fill="#042a22"/>
    <rect x="466" y="345" width="16" height="55" fill="#042a22"/>

    <!-- ── Dome C (small) ── -->
    <path d="M485,400 L485,318 C485,318 478,278 500,252 C514,236 532,228 552,225 C572,228 590,236 604,252 C626,278 619,318 619,318 L619,400Z" fill="#042a22"/>

    <!-- ── Grand left minaret ── -->
    <rect x="625" y="155" width="16" height="245" fill="#042a22"/>
    <rect x="619" y="185" width="28" height="6" rx="1" fill="#042a22"/>
    <rect x="620" y="242" width="26" height="5" rx="1" fill="#042a22"/>
    <rect x="621" y="305" width="24" height="4" rx="1" fill="#042a22"/>
    <path d="M625,155 C624,142 630,126 633,120 C636,126 642,142 641,155Z" fill="#042a22"/>
    <rect x="631" y="95" width="4" height="25" fill="#042a22"/>
    <path d="M627,89 A7,7 0 1,0 639,89 A5.5,5.5 0 1,1 627,89Z" fill="#042a22"/>
    <circle cx="633" cy="80" r="2.5" fill="#042a22"/>

    <!-- ══ GRAND DOME D (CENTER) ══ -->
    <path d="M648,400 L648,280 C648,280 634,205 680,158 C708,125 745,105 790,98 C835,105 872,125 900,158 C946,205 932,280 932,280 L932,400Z" fill="#042a22"/>

    <!-- Grand crescent + star -->
    <rect x="786" y="52" width="8" height="46" fill="#042a22"/>
    <rect x="782" y="94" width="16" height="5" rx="2" fill="#042a22"/>
    <path d="M780,42 A12,12 0 1,0 800,42 A9.5,9.5 0 1,1 780,42Z" fill="#042a22"/>
    <circle cx="790" cy="30" r="3" fill="#042a22"/>

    <!-- ── Grand right minaret ── -->
    <rect x="938" y="155" width="16" height="245" fill="#042a22"/>
    <rect x="932" y="185" width="28" height="6" rx="1" fill="#042a22"/>
    <rect x="933" y="242" width="26" height="5" rx="1" fill="#042a22"/>
    <rect x="934" y="305" width="24" height="4" rx="1" fill="#042a22"/>
    <path d="M938,155 C937,142 943,126 946,120 C949,126 955,142 954,155Z" fill="#042a22"/>
    <rect x="944" y="95" width="4" height="25" fill="#042a22"/>
    <path d="M940,89 A7,7 0 1,0 952,89 A5.5,5.5 0 1,1 940,89Z" fill="#042a22"/>
    <circle cx="946" cy="80" r="2.5" fill="#042a22"/>

    <!-- ── Dome E (small right) ── -->
    <path d="M960,400 L960,320 C960,320 953,280 975,255 C988,240 1005,232 1025,229 C1045,232 1062,240 1075,255 C1097,280 1090,320 1090,320 L1090,400Z" fill="#042a22"/>

    <!-- Small buildings -->
    <rect x="1095" y="342" width="18" height="58" fill="#042a22"/>
    <rect x="1117" y="335" width="22" height="65" fill="#042a22"/>

    <!-- Minaret E-F -->
    <rect x="1142" y="200" width="13" height="200" fill="#042a22"/>
    <rect x="1137" y="228" width="23" height="5" rx="1" fill="#042a22"/>
    <rect x="1138" y="280" width="21" height="4" rx="1" fill="#042a22"/>
    <path d="M1142,200 C1141,189 1146,176 1149,172 C1152,176 1157,189 1156,200Z" fill="#042a22"/>
    <rect x="1147" y="152" width="4" height="20" fill="#042a22"/>
    <path d="M1143,147 A6,6 0 1,0 1155,147 A4.8,4.8 0 1,1 1143,147Z" fill="#042a22"/>
    <circle cx="1149" cy="139" r="2" fill="#042a22"/>

    <!-- ── Dome F (medium right) ── -->
    <path d="M1165,400 L1165,305 C1165,305 1155,258 1185,228 C1204,207 1228,196 1255,193 C1282,196 1306,207 1325,228 C1355,258 1345,305 1345,305 L1345,400Z" fill="#042a22"/>

    <!-- Right minaret -->
    <rect x="1352" y="215" width="12" height="185" fill="#042a22"/>
    <rect x="1348" y="242" width="20" height="4" rx="1" fill="#042a22"/>
    <rect x="1349" y="295" width="18" height="3" rx="1" fill="#042a22"/>
    <path d="M1352,215 C1351,205 1356,193 1358,189 C1360,193 1365,205 1364,215Z" fill="#042a22"/>
    <rect x="1356" y="175" width="4" height="14" fill="#042a22"/>
    <path d="M1353,170 A5,5 0 1,0 1363,170 A4,4 0 1,1 1353,170Z" fill="#042a22"/>

    <!-- Far right buildings -->
    <rect x="1372" y="338" width="20" height="62" fill="#042a22"/>
    <rect x="1396" y="345" width="18" height="55" fill="#042a22"/>
    <rect x="1418" y="332" width="26" height="68" fill="#042a22"/>

    <!-- Ground -->
    <rect x="0" y="395" width="1440" height="5" fill="#042a22"/>
  </g>
</svg>
